   <svg
              xmlns="http://www.w3.org/2000/svg"
              version="1.1"
              xmlnsXlink="http://www.w3.org/1999/xlink"
              xmlnsXhref="http://svgjs.dev/svgjs"
              viewBox="0 0 800 800"
            >
              <defs>
                <linearGradient
                  x1="50%"
                  y1="0%"
                  x2="50%"
                  y2="100%"
                  id="ccchaos-grad"
                >
                  <stop
                    stop-color="hsl(206, 75%, 49%)"
                    stop-opacity="1"
                    offset="0%"
                  ></stop>
                  <stop
                    stop-color="hsl(331, 90%, 56%)"
                    stop-opacity="1"
                    offset="100%"
                  ></stop>
                </linearGradient>
              </defs>
              <g
                stroke-width="2"
                stroke="#f1c47b"
                fill="none"
                stroke-linecap="round"
              >
                <path
                  d="M382.92 126.73C392.39 127.96 401.9 128.77 411.44 129.16 421 128.67 430.61 127.92 440.27 127.04 449.98 125.71 459.78 124.62 469.65 123.95 479.62 123.39 489.71 123.61 499.91 124.72 510.22 126.39 520.67 129.13 531.23 132.94 541.91 137.46 552.67 143.02 563.47 149.51 574.32 156.59 585.13 164.42 595.79 172.87 606.35 181.62 616.63 190.77 626.48 200.19 635.98 209.62 644.86 219.16 652.95 228.72 660.43 238.09 666.91 247.41 672.26 256.65 676.78 265.63 680.04 274.53 681.97 283.37 683.06 291.95 682.86 300.53 681.41 309.14 679.39 317.55 676.38 326.06 672.55 334.71 668.7 343.24 664.47 351.96 660.11 360.92 656.42 369.81 653.08 378.99 650.31 388.48 648.8 397.93 648.17 407.73 648.52 417.86 650.33 428 653 438.25 656.37 448.59 660.77 458.92 665.43 469.31 670.09 479.72 675.06 490.08 679.53 500.41 683.27 510.59 686.63 520.67 688.87 530.51 689.86 540 690.04 549.25 688.81 558.01 686.2 566.15 682.65 573.89 677.77 580.85 671.68 586.93 664.81 592.47 656.92 597.03 648.19 600.56 638.96 603.58 629.13 605.64 618.86 606.78 608.38 607.71 597.66 608.02 586.82 607.9 576 608.15 565.18 608.47 554.43 609.12 543.83 610.85 533.33 613.42 522.99 617.05 512.82 622.25 502.78 628.71 492.88 636.42 483.13 645.55 473.47 655.59 463.9 666.2 454.42 677.25 444.99 688.01 435.59 697.93 426.24 706.81 416.89 713.86 407.53 718.59 398.18 721.16 388.81 720.94 379.42 717.86 370.04 712.64 360.85 705.21 351.88 696.14 342.9 686.35 334.15 676.06 325.65 665.86 317.15 656.54 308.9 648.21 300.94 641.16 292.99 635.9 285.33 632.14 277.98 629.79 270.63 629.12 263.6 629.46 256.89 630.49 250.16 632.41 243.75 634.35 237.64 635.96 228.54 637.91 211.55 635.75 203.56 630.95 198.13 626.44 192.88 620.66 187.82 613.74 182.53 606.07 177.38 597.47 172.39 588.11 167.16 578.27 162.08 567.92 157.17 557.21 152.06 546.27 147.14 535.16 142.46 524 137.65 512.78 133.14 501.61 128.98 490.55 124.81 479.52 121.06 468.63 117.81 457.94 114.65 447.28 112.07 436.81 110.11 426.56 108.35 416.33 107.28 406.29 106.94 396.47 106.88 386.65 107.56 377.26 108.95 368.3 110.58 359.32 112.9 350.76 115.83 342.61 118.92 334.42 122.58 326.63 126.73 319.21 130.93 311.72 135.55 304.56 140.53 297.72 145.45 290.74 150.66 284 156.11 277.46 161.41 270.69 166.89 264.01 172.55 257.38 177.98 250.41 183.57 243.38 189.29 236.25 194.78 228.69 200.42 220.98 206.21 213.11 211.8 204.84 217.57 196.43 223.54 187.96 229.35 179.27 235.39 170.66 241.68 162.28 247.87 153.99 254.33 146.18 261.08 139.02 267.77 132.35 274.76 126.58 282.05 121.85 289.31 117.88 296.88 115.07 304.75 113.46 312.6 112.58 320.76 112.77 329.19 113.96 337.61 115.45 346.31 117.58 355.27 120.14 364.22 122.39 373.44 124.64 382.91 126.73"
                  stroke-dasharray="0 0"
                  transform="rotate(0, 400, 400)"
                  opacity="0.21"
                ></path>
                <path
                  d="M386.53 138.09C395.72 139.33 404.98 140.17 414.29 140.62 423.63 140.22 433.05 139.56 442.54 138.76 452.07 137.49 461.71 136.4 471.43 135.66 481.23 134.97 491.15 134.96 501.16 135.74 511.26 136.99 521.46 139.22 531.73 142.46 542.06 146.34 552.43 151.23 562.77 157.04 573.09 163.43 583.31 170.62 593.3 178.47 603.14 186.68 612.62 195.36 621.61 204.39 630.23 213.53 638.19 222.86 645.35 232.29 651.91 241.63 657.5 250.98 662 260.29 665.76 269.41 668.35 278.48 669.72 287.49 670.36 296.3 669.86 305.08 668.25 313.86 666.18 322.46 663.27 331.13 659.66 339.87 656.09 348.49 652.23 357.26 648.28 366.19 644.97 375.07 642 384.15 639.55 393.46 638.25 402.75 637.75 412.3 638.11 422.11 639.79 431.92 642.24 441.76 645.32 451.6 649.34 461.43 653.61 471.24 657.9 480.96 662.52 490.63 666.72 500.17 670.28 509.48 673.58 518.65 675.88 527.51 677.09 535.94 677.61 544.12 676.86 551.76 674.84 558.75 672 565.37 667.91 571.22 662.67 576.22 656.7 580.8 649.73 584.49 641.9 587.28 633.57 589.73 624.59 591.4 615.1 592.36 605.36 593.31 595.29 593.85 585.02 594.18 574.71 595.02 564.31 596.08 553.92 597.6 543.61 600.22 533.35 603.69 523.2 608.18 513.17 614.08 503.25 621.11 493.45 629.2 483.78 638.46 474.2 648.41 464.72 658.74 455.34 669.31 446.01 679.46 436.75 688.69 427.54 696.89 418.37 703.31 409.22 707.55 400.1 709.8 390.99 709.46 381.91 706.49 372.83 701.56 363.98 694.58 355.37 686.05 346.76 676.79 338.38 666.98 330.27 657.14 322.16 648.01 314.31 639.66 306.74 632.39 299.17 626.69 291.89 622.32 284.9 619.24 277.9 617.75 271.2 617.26 264.79 617.52 258.35 618.74 252.19 620.16 246.32 621.46 237.52 623.36 220.95 622.64 213.09 619.21 207.74 615.84 202.54 611.29 197.51 605.65 192.26 599.33 187.14 592.05 182.17 583.98 176.97 575.4 171.92 566.22 167.03 556.58 161.96 546.67 157.08 536.46 152.43 526.09 147.68 515.61 143.22 505.07 139.11 494.56 135 484.03 131.3 473.59 128.09 463.28 124.99 452.99 122.44 442.86 120.49 432.91 118.77 422.98 117.71 413.22 117.36 403.68 117.28 394.13 117.94 385 119.28 376.29 120.88 367.55 123.14 359.2 126 351.23 129.03 343.22 132.61 335.55 136.67 328.21 140.81 320.78 145.35 313.63 150.25 306.73 155.11 299.67 160.26 292.79 165.65 286.04 170.91 279.04 176.36 272.09 181.97 265.14 187.38 257.85 192.94 250.49 198.63 243.03 204.11 235.19 209.72 227.21 215.47 219.12 221.02 210.72 226.73 202.25 232.61 193.8 238.34 185.23 244.27 176.83 250.41 168.74 256.44 160.85 262.72 153.49 269.25 146.83 275.71 140.69 282.45 135.46 289.47 131.27 296.44 127.8 303.7 125.44 311.26 124.21 318.78 123.63 326.6 124.05 334.7 125.37 342.78 126.95 351.15 129.09 359.79 131.63 368.42 133.84 377.33 136.04 386.52 138.09"
                  stroke-dasharray="0 0"
                  transform="rotate(4.04, 400, 400)"
                  opacity="0.13"
                ></path>
                <path
                  d="M390.79 149.46C399.7 150.7 408.7 151.57 417.78 152.07 426.88 151.76 436.08 151.2 445.36 150.49 454.68 149.29 464.1 148.23 473.6 147.46 483.17 146.66 492.83 146.45 502.56 146.95 512.36 147.82 522.21 149.59 532.09 152.28 541.99 155.56 551.87 159.78 561.65 164.91 571.37 170.6 580.92 177.1 590.18 184.28 599.24 191.87 607.9 199.99 616.02 208.53 623.76 217.25 630.82 226.23 637.07 235.39 642.77 244.55 647.53 253.79 651.26 263.04 654.34 272.17 656.33 281.29 657.22 290.37 657.51 299.3 656.77 308.2 655.06 317.08 653.01 325.83 650.23 334.59 646.86 343.38 643.59 352.09 640.09 360.87 636.53 369.75 633.6 378.58 630.97 387.56 628.82 396.68 627.72 405.78 627.33 415.06 627.69 424.51 629.26 433.96 631.5 443.35 634.29 452.66 637.96 461.96 641.86 471.14 645.78 480.15 650.05 489.1 653.97 497.83 657.34 506.25 660.53 514.53 662.86 522.43 664.22 529.84 665.01 537.03 664.66 543.65 663.17 549.6 660.96 555.25 657.59 560.17 653.14 564.31 648.01 568.14 641.92 571.19 634.98 573.5 627.54 575.63 619.41 577.15 610.74 578.16 601.78 579.32 592.43 580.26 582.82 581.16 573.1 582.68 563.23 584.54 553.29 586.93 543.37 590.4 533.46 594.69 523.6 599.92 513.82 606.42 504.11 613.88 494.51 622.22 484.99 631.5 475.57 641.27 466.25 651.24 457 661.28 447.83 670.8 438.75 679.35 429.71 686.87 420.72 692.7 411.81 696.47 402.91 698.41 394.06 697.98 385.27 695.12 376.47 690.48 367.94 683.94 359.66 675.92 351.38 667.2 343.35 657.87 335.6 648.42 327.83 639.52 320.33 631.22 313.11 623.81 305.87 617.76 298.91 612.87 292.24 609.14 285.53 606.88 279.1 605.6 272.95 605.08 263.77 605.98 246.55 608.84 238.43 609.43 230.3 608.91 214.66 602.32 207.08 596.06 201.86 590.96 196.76 584.93 191.8 578.09 186.64 570.77 181.61 562.78 176.75 554.27 171.72 545.44 166.89 536.24 162.3 526.77 157.61 517.15 153.21 507.37 149.16 497.54 145.12 487.65 141.48 477.77 138.32 467.96 135.28 458.14 132.78 448.42 130.87 438.84 129.18 429.27 128.13 419.84 127.77 410.58 127.69 401.33 128.32 392.44 129.61 383.93 131.16 375.4 133.35 367.22 136.13 359.36 139.09 351.46 142.58 343.85 146.55 336.51 150.6 329.08 155.06 321.86 159.87 314.83 164.65 307.64 169.72 300.56 175.04 293.56 180.24 286.32 185.64 279.09 191.21 271.82 196.6 264.26 202.13 256.62 207.79 248.88 213.25 240.84 218.84 232.7 224.56 224.49 230.08 216.06 235.75 207.64 241.57 199.32 247.23 190.98 253.08 182.89 259.11 175.19 265.02 167.75 271.15 160.9 277.52 154.78 283.79 149.21 290.32 144.54 297.11 140.87 303.84 137.89 310.85 135.96 318.13 135.09 325.38 134.79 332.9 135.41 340.71 136.85 348.49 138.49 356.56 140.64 364.91 143.13 373.24 145.3 381.87 147.45 390.78 149.46"
                  stroke-dasharray="0 0"
                  transform="rotate(8.08, 400, 400)"
                  opacity="0.26"
                ></path>
                <path
                  d="M395.49 160.83C404.13 162.06 412.87 162.96 421.69 163.51 430.53 163.3 439.47 162.84 448.49 162.23 457.54 161.12 466.69 160.11 475.91 159.33 485.17 158.46 494.51 158.1 503.88 158.36 513.29 158.9 522.71 160.25 532.11 162.44 541.5 165.13 550.8 168.73 559.96 173.17 569.02 178.16 577.84 183.94 586.33 190.42 594.59 197.32 602.4 204.8 609.66 212.74 616.54 220.94 622.73 229.46 628.13 238.22 633.02 247.06 637.03 256.04 640.07 265.09 642.54 274.1 644.03 283.13 644.53 292.15 644.53 301.08 643.62 309.99 641.88 318.88 639.88 327.67 637.26 336.45 634.15 345.23 631.19 353.95 628.04 362.69 624.86 371.48 622.29 380.23 619.99 389.05 618.12 397.95 617.21 406.83 616.91 415.81 617.28 424.87 618.73 433.93 620.77 442.85 623.3 451.61 626.63 460.35 630.16 468.89 633.73 477.18 637.66 485.41 641.28 493.35 644.45 500.91 647.5 508.35 649.8 515.36 651.26 521.86 652.26 531.02 648.18 545.93 643.09 551.52 638.75 554.83 633.49 557.49 627.4 559.55 620.82 561.58 613.55 563.16 605.71 564.42 597.56 565.95 588.98 567.42 580.07 568.99 571.01 571.24 561.74 573.89 552.35 577.12 542.93 581.36 533.45 586.39 523.97 592.25 514.54 599.22 505.14 606.98 495.81 615.43 486.54 624.63 477.35 634.14 468.25 643.67 459.2 653.15 450.24 662.03 441.37 669.9 432.53 676.77 423.77 682.02 415.1 685.36 406.44 687.02 397.84 686.5 389.33 683.75 380.82 679.39 372.58 673.27 364.61 665.76 356.63 657.56 348.92 648.73 341.48 639.69 334.02 631.06 326.82 622.88 319.91 615.4 312.96 609.09 306.28 603.77 299.87 599.48 293.41 596.52 287.21 594.49 281.27 593.22 272.37 593.03 255.56 594.51 247.57 594.96 239.56 594.77 224.03 590.02 216.48 585.13 211.28 581.08 206.21 576.17 201.27 570.46 196.14 564.32 191.15 557.49 186.33 550.08 181.36 542.37 176.58 534.21 172.04 525.7 167.43 517.01 163.11 508.09 159.13 499.02 155.17 489.87 151.61 480.65 148.52 471.41 145.55 462.16 143.1 452.93 141.23 443.78 139.58 434.62 138.55 425.56 138.19 416.61 138.1 407.66 138.69 399.02 139.94 390.7 141.43 382.36 143.55 374.31 146.24 366.53 149.11 358.7 152.5 351.11 156.36 343.73 160.31 336.25 164.66 328.93 169.37 321.73 174.06 314.39 179.05 307.1 184.28 299.86 189.42 292.4 194.76 284.92 200.26 277.4 205.62 269.62 211.12 261.77 216.74 253.85 222.18 245.7 227.75 237.5 233.44 229.3 238.94 220.96 244.58 212.71 250.35 204.63 255.97 196.61 261.75 188.92 267.7 181.68 273.52 174.76 279.54 168.47 285.77 162.92 291.9 157.92 298.26 153.81 304.86 150.67 311.4 148.17 318.19 146.64 325.23 146.1 332.23 146.06 339.51 146.86 347.05 148.39 354.56 150.08 362.36 152.21 370.43 154.65 378.49 156.77 386.84 158.87 395.48 160.83"
                  stroke-dasharray="0 0"
                  transform="rotate(12.12, 400, 400)"
                  opacity="0.23"
                ></path>
                <path
                  d="M400.41 172.2C408.77 173.43 417.23 174.35 425.77 174.95 434.32 174.83 442.97 174.48 451.69 173.97 460.43 172.96 469.25 172.02 478.12 171.25 487.01 170.36 495.95 169.89 504.89 169.94 513.84 170.21 522.76 171.19 531.61 172.92 540.41 175.08 549.09 178.07 557.56 181.87 565.91 186.15 573.98 191.21 581.67 196.97 589.13 203.15 596.11 209.92 602.52 217.2 608.57 224.77 613.94 232.72 618.56 240.97 622.72 249.36 626.04 257.94 628.48 266.65 630.43 275.39 631.5 284.2 631.68 293.03 631.46 301.82 630.45 310.62 628.72 319.39 626.82 328.11 624.39 336.82 621.55 345.5 618.9 354.13 616.09 362.77 613.28 371.4 611.04 380 609.06 388.62 607.44 397.25 606.7 405.88 606.5 414.52 606.86 423.16 608.21 431.81 610.06 440.24 612.33 448.44 615.35 456.61 618.54 464.53 621.76 472.13 625.35 479.68 628.68 486.87 631.62 493.66 635.63 503.45 639.53 520.33 638.99 527.25 636.72 533.34 626.69 542.51 619.16 545.79 613.41 547.91 606.98 549.74 599.97 551.39 592.63 553.41 584.84 555.49 576.67 557.78 568.33 560.75 559.72 564.18 550.94 568.18 542.08 573.11 533.12 578.75 524.12 585.12 515.11 592.41 506.1 600.35 497.13 608.8 488.19 617.81 479.3 626.98 470.48 636.02 461.71 644.91 453 653.13 444.38 660.34 435.8 666.58 427.29 671.29 418.87 674.21 410.47 675.61 402.15 675.02 393.91 672.39 385.68 668.29 377.72 662.57 370.04 655.56 362.35 647.88 354.92 639.55 347.75 630.95 340.57 622.63 333.65 614.61 326.99 607.14 320.29 600.65 313.84 595 307.65 590.24 301.41 586.67 295.4 583.94 289.62 581.96 280.94 580.69 264.45 580.54 256.57 580.62 248.63 580.47 233.2 576.89 225.67 573.06 220.51 569.89 215.47 565.91 210.55 561.2 205.46 556.12 200.52 550.36 195.74 544 190.84 537.36 186.14 530.22 181.67 522.68 177.15 514.96 172.92 506.93 169.02 498.67 165.16 490.31 161.69 481.8 158.67 473.21 155.78 464.57 153.4 455.9 151.58 447.22 149.97 438.53 148.96 429.87 148.6 421.25 148.5 412.63 149.07 404.25 150.26 396.12 151.69 387.97 153.73 380.05 156.32 372.33 159.09 364.56 162.37 356.97 166.11 349.53 169.95 342 174.18 334.57 178.76 327.23 183.35 319.75 188.23 312.29 193.35 304.84 198.41 297.21 203.67 289.55 209.11 281.85 214.41 273.95 219.86 266 225.44 258.02 230.86 249.88 236.4 241.74 242.05 233.65 247.53 225.53 253.14 217.55 258.88 209.82 264.46 202.23 270.19 195.02 276.07 188.3 281.83 181.95 287.76 176.24 293.87 171.29 299.89 166.88 306.12 163.32 312.56 160.68 318.93 158.63 325.54 157.49 332.38 157.24 339.17 157.44 346.23 158.38 353.53 159.99 360.8 161.7 368.35 163.81 376.16 166.19 383.96 168.25 392.04 170.28 400.4 172.2"
                  stroke-dasharray="0 0"
                  transform="rotate(16.16, 400, 400)"
                  opacity="0.29"
                ></path>
                <path
                  d="M405.31 183.57C413.38 184.79 421.54 185.73 429.77 186.38 438.01 186.35 446.33 186.11 454.7 185.7 463.09 184.81 471.52 183.96 479.98 183.23 488.45 182.33 496.93 181.79 505.37 181.69 513.8 181.74 522.16 182.4 530.4 183.73 538.58 185.41 546.58 187.85 554.35 191.02 561.96 194.64 569.26 198.99 576.16 204.02 582.82 209.46 589 215.5 594.61 222.06 599.87 228.93 604.49 236.23 608.39 243.86 611.88 251.69 614.61 259.76 616.53 268 618.04 276.33 618.76 284.78 618.71 293.28 618.34 301.8 617.28 310.34 615.61 318.88 613.84 327.41 611.62 335.92 609.06 344.4 606.71 352.86 604.24 361.29 601.79 369.68 599.86 378.07 598.17 386.42 596.79 394.74 596.21 403.05 596.08 411.32 596.45 419.53 597.69 427.73 599.37 435.67 601.4 443.32 604.11 450.95 606.97 458.27 609.87 465.23 613.12 472.15 616.15 478.68 618.85 484.79 622.63 493.6 626.68 508.66 626.55 514.84 624.92 520.38 616.71 529.1 610.27 532.54 605.31 534.91 599.68 537.12 593.47 539.28 586.94 541.86 579.94 544.59 572.53 547.59 564.93 551.27 557.03 555.4 548.9 560.08 540.68 565.59 532.3 571.71 523.82 578.45 515.33 585.94 506.78 593.93 498.23 602.28 489.7 611.01 481.17 619.76 472.7 628.27 464.26 636.55 455.87 644.11 447.55 650.67 439.26 656.3 431.04 660.49 422.9 663.03 414.78 664.19 406.74 663.53 398.79 661.02 390.84 657.19 383.16 651.86 375.74 645.33 368.32 638.15 361.15 630.33 354.24 622.17 347.31 614.2 340.63 606.41 334.19 599.02 327.71 592.43 321.47 586.53 315.46 581.39 309.39 577.3 303.54 573.96 297.89 571.32 289.4 568.99 273.16 567.06 265.35 566.6 257.48 566.23 242.14 563.22 234.64 560.14 229.52 557.61 224.51 554.4 219.63 550.5 214.6 546.32 209.71 541.5 205 536.09 200.18 530.43 195.56 524.26 191.18 517.64 186.77 510.85 182.64 503.7 178.84 496.26 175.09 488.72 171.72 480.96 168.79 473.03 165.99 465.06 163.69 456.96 161.92 448.79 160.36 440.62 159.38 432.38 159.02 424.12 158.91 415.86 159.44 407.76 160.57 399.84 161.94 391.9 163.89 384.11 166.37 376.46 169.04 368.78 172.2 361.2 175.8 353.73 179.51 346.17 183.6 338.67 188.04 331.22 192.51 323.65 197.27 316.08 202.27 308.51 207.23 300.79 212.4 293.04 217.74 285.27 222.98 277.36 228.36 269.42 233.88 261.5 239.26 253.49 244.76 245.54 250.36 237.7 255.82 229.9 261.4 222.31 267.1 215.01 272.65 207.92 278.33 201.26 284.15 195.13 289.85 189.38 295.71 184.28 301.73 179.93 307.65 176.09 313.77 173.07 320.07 170.92 326.3 169.29 332.75 168.5 339.41 168.52 346.02 168.92 352.87 169.99 359.96 171.65 367.01 173.37 374.32 175.44 381.87 177.75 389.41 179.73 397.22 181.71 405.3 183.56"
                  stroke-dasharray="0 0"
                  transform="rotate(20.200000000000003, 400, 400)"
                  opacity="0.67"
                ></path>
                <path
                  d="M409.95 194.93C417.73 196.14 425.57 197.1 433.46 197.8 441.36 197.86 449.31 197.72 457.29 197.43 465.28 196.66 473.29 195.9 481.29 195.24 489.28 194.38 497.25 193.8 505.15 193.59 513.01 193.46 520.77 193.86 528.37 194.85 535.89 196.11 543.2 198.05 550.23 200.66 557.11 203.65 563.65 207.32 569.78 211.64 575.68 216.34 581.09 221.63 585.94 227.45 590.49 233.58 594.42 240.16 597.68 247.11 600.59 254.27 602.8 261.73 604.29 269.4 605.44 277.2 605.89 285.16 605.66 293.21 605.2 301.32 604.15 309.49 602.57 317.67 600.96 325.87 598.96 334.07 596.69 342.24 594.64 350.42 592.5 358.56 590.38 366.64 588.75 374.72 587.32 382.74 586.17 390.69 585.72 398.64 585.67 406.51 586.03 414.26 587.18 422.02 588.69 429.47 590.5 436.6 592.92 443.71 595.47 450.48 598.05 456.88 600.98 463.24 603.72 469.21 606.18 474.76 609.69 482.78 613.76 496.52 613.93 502.23 612.83 507.49 606.21 516.28 600.77 520.12 596.54 522.85 591.66 525.53 586.21 528.25 580.47 531.41 574.24 534.79 567.59 538.47 560.74 542.79 553.56 547.54 546.12 552.78 538.57 558.74 530.81 565.22 522.93 572.19 515 579.75 506.97 587.67 498.91 595.8 490.84 604.17 482.75 612.45 474.68 620.4 466.63 628.04 458.6 634.95 450.63 640.88 442.67 645.93 434.77 649.63 426.94 651.82 419.13 652.76 411.38 652.05 403.72 649.65 396.06 646.08 388.65 641.13 381.5 635.06 374.34 628.39 367.42 621.06 360.74 613.37 354.04 605.77 347.57 598.24 341.33 591 335.05 584.4 328.98 578.35 323.13 572.92 317.21 568.4 311.49 564.54 305.96 561.31 297.62 557.99 281.59 554.23 273.85 553.08 266.04 552.29 250.8 549.31 243.35 546.66 238.27 544.59 233.31 541.92 228.48 538.67 223.53 535.21 218.72 531.15 214.09 526.55 209.37 521.74 204.85 516.43 200.58 510.66 196.28 504.74 192.27 498.42 188.58 491.76 184.95 485.02 181.7 477.99 178.87 470.73 176.17 463.42 173.95 455.93 172.25 448.29 170.74 440.64 169.79 432.87 169.43 424.99 169.32 417.11 169.81 409.32 170.89 401.62 172.18 393.92 174.04 386.3 176.41 378.76 178.96 371.19 181.98 363.67 185.43 356.21 189 348.69 192.95 341.18 197.23 333.69 201.56 326.11 206.17 318.52 211.04 310.92 215.87 303.22 220.92 295.5 226.15 287.78 231.3 279.98 236.6 272.19 242.03 264.45 247.35 256.7 252.79 249.05 258.34 241.58 263.76 234.21 269.3 227.09 274.94 220.33 280.45 213.8 286.09 207.74 291.85 202.23 297.49 197.1 303.28 192.62 309.21 188.87 315.06 185.59 321.07 183.09 327.24 181.39 333.35 180.15 339.65 179.67 346.15 179.93 352.59 180.5 359.25 181.67 366.12 183.36 372.97 185.07 380.04 187.09 387.34 189.32 394.63 191.23 402.17 193.13 409.94 194.93"
                  stroke-dasharray="0 0"
                  transform="rotate(24.24, 400, 400)"
                  opacity="0.17"
                ></path>
                <path
                  d="M414.11 206.3C421.57 207.49 429.07 208.46 436.6 209.2 444.13 209.35 451.68 209.32 459.23 209.14 466.79 208.51 474.33 207.86 481.83 207.28 489.32 206.47 496.74 205.9 504.05 205.63 511.33 205.37 518.46 205.57 525.4 206.27 532.25 207.18 538.86 208.68 545.17 210.78 551.33 213.19 557.13 216.24 562.52 219.88 567.7 223.87 572.39 228.42 576.56 233.49 580.45 238.87 583.77 244.69 586.48 250.91 588.88 257.36 590.66 264.12 591.79 271.14 592.66 278.31 592.92 285.67 592.58 293.17 592.08 300.75 591.08 308.42 589.63 316.14 588.19 323.9 586.43 331.69 584.44 339.45 582.68 347.23 580.86 354.98 579.05 362.67 577.7 370.37 576.52 378 575.57 385.54 575.25 393.08 575.26 400.51 575.62 407.81 576.67 415.11 578.02 422.09 579.62 428.73 581.78 435.36 584.03 441.64 586.32 447.56 590.15 456.2 596.81 471.51 599.16 478.15 600.64 489.74 595.23 504.39 590.68 508.76 587.11 511.92 582.93 515.11 578.2 518.41 573.19 522.15 567.71 526.13 561.8 530.41 555.7 535.28 549.24 540.53 542.5 546.21 535.63 552.5 528.54 559.19 521.27 566.25 513.95 573.77 506.49 581.51 498.96 589.33 491.4 597.27 483.8 605.03 476.18 612.39 468.56 619.39 460.94 625.66 453.36 630.98 445.78 635.47 438.23 638.71 430.74 640.57 423.26 641.31 415.83 640.56 408.47 638.28 401.11 634.95 393.99 630.37 387.1 624.76 380.19 618.57 373.52 611.75 367.06 604.52 360.58 597.32 354.31 590.11 348.25 583.06 342.15 576.53 336.24 570.41 330.52 564.79 324.75 559.94 319.14 555.65 313.7 551.92 305.5 547.7 289.67 542.13 282 540.23 274.27 538.85 259.16 535.44 251.77 532.96 244.32 529.98 229.9 521.36 223.01 515.67 218.41 511.57 214.01 506.98 209.86 501.94 205.7 496.78 201.82 491.21 198.26 485.28 194.77 479.27 191.64 472.93 188.92 466.32 186.33 459.67 184.2 452.77 182.56 445.67 181.12 438.55 180.2 431.24 179.85 423.77 179.73 416.3 180.19 408.84 181.2 401.42 182.42 393.99 184.18 386.58 186.42 379.2 188.85 371.8 191.73 364.41 195.02 357.04 198.43 349.62 202.22 342.19 206.33 334.76 210.5 327.27 214.95 319.77 219.65 312.26 224.35 304.69 229.26 297.12 234.35 289.58 239.39 282.01 244.58 274.49 249.91 267.07 255.14 259.69 260.5 252.47 265.97 245.46 271.33 238.61 276.8 232.05 282.37 225.88 287.84 219.97 293.41 214.54 299.1 209.67 304.69 205.17 310.4 201.31 316.24 198.13 322 195.4 327.9 193.37 333.96 192.09 339.95 191.21 346.11 191.01 352.44 191.47 358.72 192.18 365.2 193.42 371.86 195.12 378.49 196.8 385.33 198.76 392.37 200.9 399.4 202.74 406.65 204.56 414.1 206.3"
                  stroke-dasharray="0 0"
                  transform="rotate(28.28, 400, 400)"
                  opacity="0.10"
                ></path>
                <path
                  d="M417.6 217.67C424.72 218.84 431.86 219.82 438.99 220.59 446.12 220.83 453.25 220.9 460.35 220.83 467.44 220.33 474.49 219.81 481.46 219.33 488.42 218.6 495.27 218.06 501.99 217.77 508.65 217.44 515.15 217.49 521.43 217.96 530.57 219.14 547.17 224.51 554.43 228.77 560.96 234.01 571.24 247.44 574.86 255.44 576.85 261.13 578.27 267.16 579.13 273.47 579.78 279.94 579.9 286.63 579.52 293.49 579.02 300.45 578.1 307.54 576.8 314.7 575.55 321.93 574.04 329.19 572.33 336.46 570.85 343.76 569.32 351.04 567.8 358.27 566.71 365.52 565.75 372.71 564.99 379.79 564.79 386.88 564.85 393.87 565.2 400.71 566.17 407.55 567.37 414.08 568.78 420.28 570.68 426.48 572.66 432.34 574.66 437.85 578.05 445.93 584.02 460.35 586.19 466.7 587.87 478.19 583.84 493.68 580.07 498.68 577.08 502.29 573.52 505.99 569.45 509.83 565.14 514.09 560.36 518.6 555.16 523.39 549.77 528.68 544.02 534.32 537.98 540.3 531.8 546.76 525.37 553.54 518.75 560.57 512.05 567.92 505.19 575.38 498.22 582.81 491.22 590.27 484.13 597.46 477 604.21 469.86 610.58 462.69 616.22 455.53 620.95 448.36 624.92 441.2 627.74 434.08 629.29 426.95 629.86 419.86 629.07 412.82 626.91 405.77 623.83 398.94 619.6 392.31 614.42 385.67 608.71 379.23 602.38 373 595.63 366.73 588.85 360.66 581.98 354.77 575.19 348.84 568.79 343.09 562.69 337.5 556.97 331.86 551.89 326.36 547.27 321.02 543.13 312.96 538.14 297.34 530.86 289.75 528.17 282.11 526.12 267.18 521.93 259.9 519.39 252.58 516.56 238.47 508.85 231.76 503.85 227.3 500.28 223.05 496.27 219.03 491.83 215.03 487.31 211.3 482.38 207.88 477.08 204.53 471.72 201.54 466.02 198.94 460 196.47 453.96 194.43 447.63 192.87 441.05 191.49 434.45 190.61 427.63 190.26 420.58 190.14 413.53 190.56 406.44 191.5 399.33 192.65 392.22 194.3 385.08 196.42 377.92 198.71 370.76 201.44 363.57 204.56 356.37 207.81 349.14 211.41 341.89 215.34 334.63 219.33 327.34 223.6 320.04 228.12 312.74 232.65 305.43 237.4 298.14 242.33 290.9 247.23 283.69 252.28 276.56 257.48 269.57 262.6 262.67 267.85 255.97 273.21 249.52 278.49 243.25 283.87 237.31 289.35 231.77 294.74 226.52 300.24 221.74 305.83 217.51 311.35 213.64 316.97 210.37 322.71 207.75 328.37 205.51 334.17 203.94 340.09 203.03 345.96 202.46 351.97 202.5 358.13 203.14 364.25 203.95 370.53 205.24 376.97 206.92 383.4 208.57 389.99 210.45 396.76 212.5 403.52 214.25 410.47 215.99 417.59 217.67"
                  stroke-dasharray="0 0"
                  transform="rotate(32.32, 400, 400)"
                  opacity="0.22"
                ></path>
                <path
                  d="M420.23 229.04C427 230.18 433.75 231.17 440.47 231.97 447.19 232.29 453.87 232.46 460.49 232.5 467.1 232.14 473.64 231.75 480.07 231.38 486.47 230.75 492.75 230.27 498.86 229.99 507.85 229.61 524.59 230.7 532.18 232.4 539.23 234.87 551.17 242.63 555.92 247.89 559.9 253.96 565.11 268.43 566.33 276.64 566.84 282.37 566.88 288.35 566.49 294.52 566.04 300.8 565.24 307.23 564.11 313.77 563.05 320.38 561.78 327.06 560.34 333.76 559.14 340.51 557.89 347.26 556.64 353.98 555.78 360.72 555.03 367.41 554.44 374.02 554.33 380.63 554.45 387.15 554.79 393.54 555.67 399.94 556.73 406.04 557.96 411.85 560.49 420.4 566.04 436 568.71 443.04 571.31 449.82 574.79 462.11 575.4 467.75 575.28 473.37 572.08 484.37 568.97 489.99 565 496.11 554.27 509.68 547.66 517.33 542.95 522.92 537.89 528.8 532.51 534.94 527.01 541.45 521.24 548.18 515.25 555.05 509.19 562.13 502.94 569.23 496.56 576.21 490.13 583.14 483.59 589.74 476.97 595.87 470.34 601.61 463.65 606.64 456.93 610.81 450.2 614.29 443.46 616.71 436.72 617.99 429.99 618.39 423.25 617.58 416.54 615.55 409.83 612.69 403.3 608.8 396.95 604.04 390.58 598.8 384.39 592.95 378.38 586.69 372.34 580.35 366.46 573.86 360.75 567.37 355 561.16 349.39 555.15 343.94 549.43 338.43 544.21 333.06 539.36 327.81 534.91 322.5 531.03 317.31 527.52 312.23 524.34 304.54 520.47 289.54 514.25 282.22 511.51 274.87 509.04 260.58 503.35 253.69 499.87 246.85 496.05 234 486.51 228.1 480.74 222.48 474.51 212.82 460.16 208.93 452.11 206.58 446.61 204.65 440.81 203.16 434.73 201.85 428.64 201.01 422.28 200.68 415.67 200.55 409.07 200.93 402.37 201.81 395.62 202.88 388.87 204.42 382.05 206.41 375.19 208.56 368.33 211.12 361.43 214.07 354.49 217.13 347.55 220.55 340.58 224.27 333.6 228.07 326.62 232.14 319.63 236.46 312.68 240.81 305.74 245.36 298.84 250.11 292.03 254.84 285.28 259.73 278.65 264.76 272.19 269.75 265.85 274.86 259.74 280.08 253.91 285.24 248.28 290.51 243 295.87 238.13 301.16 233.53 306.55 229.4 312.03 225.81 317.44 222.54 322.95 219.83 328.56 217.73 336.95 215.37 354.21 214.03 363.11 214.92 369.05 215.82 375.13 217.12 381.34 218.78 387.54 220.37 393.88 222.17 400.36 224.11 406.83 225.77 413.45 227.43 420.22 229.04"
                  stroke-dasharray="0 0"
                  transform="rotate(36.36, 400, 400)"
                  opacity="0.91"
                ></path>
                <path
                  d="M421.89 240.41C428.28 241.52 434.63 242.5 440.92 243.34 447.21 243.72 453.43 243.99 459.56 244.14 471.78 243.34 483.56 242.59 494.66 242.27 505.54 241.51 515.52 241.96 524.32 243.85 532.66 246.25 539.57 250.45 544.81 256.34 549.45 263.03 552.35 271.3 553.49 280.83 554.23 290.96 553.51 302.05 551.56 313.71 549.99 325.68 547.86 337.98 545.56 350.3 544.92 356.5 544.35 362.67 543.9 368.78 543.89 374.91 544.04 380.96 544.37 386.92 545.64 395.73 549.36 412.1 551.58 419.65 555.28 429.56 558.37 438.53 560.46 446.66 562.52 455.03 562.95 462.89 561.62 470.46 559.63 478.78 555.7 487.35 549.97 496.43 543.53 506.79 535.47 518.01 526.1 530.02 516.29 543.1 505.44 556.48 493.88 569.47 482.15 581.99 469.91 592.7 457.41 600.56 451.15 603.57 444.85 605.63 438.51 606.65 432.18 606.91 425.83 606.09 419.47 604.18 413.11 601.54 406.9 597.98 400.83 593.63 394.76 588.83 388.83 583.47 383.04 577.68 371.42 565.9 360.31 553.75 349.73 542.11 338.98 532.06 328.64 523.2 318.75 515.57 308.59 509.78 298.77 504.73 289.37 500.01 279.68 496.28 270.38 492.11 261.63 487.16 252.71 482.41 244.46 476.44 237.07 469.18 229.82 461.81 223.67 453.09 218.89 443.1 215.77 435.42 211.82 418.57 211.09 409.46 210.96 403.3 211.31 397.03 212.11 390.67 213.1 384.32 214.53 377.88 216.38 371.39 220.54 358.42 226.21 345.24 233.14 332.03 240.38 318.92 248.64 305.89 257.69 293.24 266.74 280.93 276.43 269.31 286.57 258.79 296.53 249.07 306.92 240.88 317.64 234.59 328.15 229.47 339.04 226.44 350.28 225.62 361.37 225.65 372.91 227.43 384.84 230.67 390.79 232.19 396.86 233.9 403.03 235.73 409.2 237.3 415.49 238.87 421.88 240.4"
                  stroke-dasharray="0 0"
                  transform="rotate(40.400000000000006, 400, 400)"
                  opacity="0.73"
                ></path>
                <path
                  d="M422.49 251.77C434.5 253.54 446.21 254.86 457.5 255.74 468.73 255.23 479.43 254.74 489.38 254.57 499.14 253.88 507.97 254.17 515.64 255.66 522.92 257.45 528.87 260.79 533.31 265.63 537.28 271.1 539.72 278.04 540.64 286.2 541.32 294.88 540.77 304.54 539.18 314.87 538.01 325.48 536.37 336.53 534.56 347.72 533.97 359.01 533.73 370.3 533.96 381.38 535.79 392.45 537.93 402.75 540.16 412.23 543.34 421.77 545.96 430.61 547.73 438.86 549.59 447.39 550.05 455.63 548.99 463.78 547.46 472.63 544.21 481.81 539.36 491.48 533.92 502.17 526.98 513.54 518.79 525.43 510.19 538.01 500.55 550.61 490.14 562.55 479.56 573.87 468.39 583.37 456.85 590.18 445.28 594.75 433.43 595.74 421.46 592.81 409.49 587.41 397.94 579.02 386.87 568.62 375.76 557.7 365.06 546.24 354.8 534.98 344.4 524.94 334.35 515.76 324.7 507.58 314.83 500.98 305.28 495.08 296.12 489.59 286.75 485.1 277.78 480.4 269.35 475.19 260.83 470.31 252.97 464.51 245.96 457.64 239.11 450.78 233.32 442.73 228.83 433.53 224.82 424.28 222.31 413.9 221.51 402.47 221.41 391.03 223.08 379.14 226.35 367 230.2 354.9 235.48 342.61 241.96 330.35 248.75 318.23 256.54 306.29 265.11 294.83 273.73 283.77 282.99 273.47 292.71 264.31 302.31 255.92 312.34 249.01 322.68 243.9 332.87 239.78 343.41 237.54 354.23 237.24 364.95 237.6 376.03 239.47 387.42 242.6 398.76 245.34 410.48 248.51 422.48 251.77"
                  stroke-dasharray="0 0"
                  transform="rotate(44.44, 400, 400)"
                  opacity="0.49"
                ></path>
                <path
                  d="M422.01 263.14C433.2 264.87 444.02 266.27 454.32 267.31 464.58 267.07 474.23 266.85 483.1 266.87 491.8 266.32 499.58 266.55 506.25 267.76 515.17 270.43 526 283.01 527.85 292.79 528.55 300.12 528.2 308.43 526.98 317.46 526.2 326.74 525.01 336.55 523.64 346.64 523.35 356.8 523.29 367.11 523.54 377.39 525.17 387.66 526.99 397.38 528.82 406.53 531.5 415.74 533.69 424.5 535.14 432.89 536.75 441.56 537.17 450.13 536.29 458.75 535.09 467.96 532.4 477.53 528.28 487.51 523.71 498.28 517.76 509.52 510.62 521.02 503.14 532.92 494.64 544.59 485.34 555.42 475.87 565.53 465.76 573.86 455.19 579.69 444.59 583.54 433.62 584.22 422.41 581.44 411.21 576.53 400.31 568.94 389.78 559.48 379.22 549.45 368.97 538.74 359.09 528 349.1 518.13 339.4 508.85 330.05 500.33 320.54 493.11 311.32 486.51 302.48 480.35 293.5 475.12 284.92 469.85 276.87 464.29 268.8 459.14 261.36 453.31 254.76 446.66 248.35 440.09 242.94 432.54 238.76 423.98 235.02 415.41 232.68 405.82 231.92 395.26 231.8 384.7 233.33 373.73 236.32 362.53 239.86 351.4 244.73 340.13 250.73 328.96 257.05 317.97 264.34 307.24 272.38 297.07 280.51 287.31 289.28 278.37 298.5 270.57 307.68 263.48 317.27 257.78 327.16 253.73 336.95 250.5 347.06 248.94 357.41 249.08 367.68 249.68 378.25 251.58 389.03 254.56 399.79 257.12 410.82 260.07 422.01 263.14"
                  stroke-dasharray="0 0"
                  transform="rotate(48.48, 400, 400)"
                  opacity="0.96"
                ></path>
                <path
                  d="M420.47 274.51C430.82 276.2 440.73 277.65 450.08 278.83 459.38 278.86 468.04 278.91 475.91 279.15 487.05 278.91 504.04 282.21 509.51 286.54 512.54 290.09 514.42 294.83 515.18 300.63 515.94 306.75 515.82 313.82 514.97 321.65 514.55 329.67 513.77 338.3 512.8 347.32 512.76 356.4 512.85 365.77 513.13 375.27 514.57 384.78 516.09 393.97 517.56 402.8 519.78 411.69 521.55 420.36 522.68 428.84 524.02 437.57 524.35 446.35 523.57 455.24 522.6 464.63 520.34 474.34 516.82 484.36 512.97 494.93 507.88 505.79 501.69 516.69 495.22 527.74 487.77 538.36 479.51 548.05 471.1 556.96 462.01 564.16 452.41 569.09 442.77 572.29 432.69 572.69 422.29 570.08 411.89 565.64 401.68 558.82 391.73 550.27 381.77 541.14 372.03 531.23 362.59 521.12 353.07 511.6 343.79 502.4 334.81 493.75 325.73 486.14 316.92 479.02 308.48 472.32 299.95 466.45 291.81 460.64 284.21 454.71 276.63 449.21 269.66 443.24 263.51 436.69 257.55 430.26 252.54 423.06 248.67 415.04 245.21 407.03 243.05 398.15 242.34 388.45 242.2 378.75 243.57 368.72 246.3 358.54 249.51 348.43 253.97 338.27 259.48 328.29 265.31 318.5 272.05 309.05 279.52 300.21 287.12 291.77 295.34 284.17 304.01 277.67 312.68 271.79 321.76 267.2 331.13 264.09 340.44 261.64 350.04 260.64 359.83 261.1 369.59 261.87 379.57 263.75 389.7 266.54 399.82 268.91 410.11 271.64 420.47 274.51"
                  stroke-dasharray="0 0"
                  transform="rotate(52.52, 400, 400)"
                  opacity="0.36"
                ></path>
                <path
                  d="M417.94 285.88C427.44 287.52 436.46 289 444.88 290.29 453.26 290.58 460.99 290.89 467.95 291.34 477.79 291.39 492.66 294.34 497.45 297.96 501.02 302.8 503.6 317.71 503.16 327.45 503.07 334.34 502.65 341.87 502.03 349.9 502.2 357.97 502.42 366.45 502.71 375.22 503.98 384 505.23 392.66 506.37 401.15 508.18 409.71 509.56 418.21 510.39 426.68 511.44 435.35 511.64 444.16 510.9 453.11 510.07 462.43 508.13 472.02 505.1 481.81 501.84 491.95 497.48 502.2 492.11 512.3 486.53 522.36 480.03 531.88 472.74 540.39 465.32 548.14 457.21 554.28 448.55 558.37 439.85 560.99 430.66 561.16 421.09 558.71 411.51 554.73 402.03 548.64 392.72 540.98 383.4 532.75 374.24 523.69 365.3 514.29 356.32 505.25 347.53 496.34 339.01 487.76 330.43 479.97 322.1 472.56 314.13 465.49 306.12 459.13 298.49 452.89 291.39 446.63 284.33 440.78 277.88 434.65 272.19 428.12 266.71 421.75 262.11 414.8 258.57 407.24 255.4 399.7 253.41 391.48 252.75 382.6 252.6 373.73 253.82 364.64 256.27 355.52 259.16 346.45 263.2 337.44 268.22 328.68 273.53 320.11 279.71 311.95 286.58 304.44 293.59 297.27 301.21 290.94 309.27 285.65 317.36 280.87 325.86 277.26 334.62 274.97 343.37 273.16 352.39 272.61 361.56 273.3 370.72 274.16 380.06 275.96 389.49 278.55 398.91 280.71 408.43 283.21 417.94 285.88"
                  stroke-dasharray="0 0"
                  transform="rotate(56.56, 400, 400)"
                  opacity="0.67"
                ></path>
                <path
                  d="M414.54 297.25C423.19 298.82 431.32 300.32 438.86 301.7 446.37 302.21 453.24 302.76 459.38 303.45 468.06 303.82 481.14 306.72 485.4 309.86 488.71 313.89 491.56 326.43 491.55 334.78 491.76 340.68 491.65 347.24 491.34 354.37 491.68 361.51 492 369.16 492.3 377.23 493.4 385.29 494.41 393.41 495.27 401.52 496.69 409.69 497.72 417.93 498.25 426.22 499.03 434.68 499.07 443.31 498.33 452.09 497.55 461.11 495.85 470.33 493.21 479.63 490.41 489.11 486.66 498.56 482.01 507.72 477.2 516.71 471.54 525.08 465.13 532.43 458.63 539.06 451.44 544.22 443.69 547.55 435.9 549.64 427.6 549.62 418.87 547.34 410.14 543.79 401.41 538.4 392.8 531.6 384.17 524.27 375.64 516.09 367.29 507.47 358.91 499.05 350.69 490.57 342.71 482.27 334.7 474.53 326.92 467.03 319.49 459.8 312.06 453.14 304.99 446.6 298.43 440.12 291.95 434 286.03 427.73 280.84 421.24 275.85 414.89 271.67 408.16 268.46 401.01 265.58 393.89 263.78 386.28 263.17 378.2 263 370.12 264.07 361.97 266.26 353.89 268.83 345.86 272.44 337.99 276.96 330.45 281.74 323.07 287.33 316.15 293.57 309.89 299.97 303.92 306.94 298.75 314.33 294.54 321.79 290.73 329.64 287.96 337.73 286.32 345.85 285.03 354.2 284.81 362.7 285.64 371.19 286.53 379.83 288.21 388.5 290.57 397.18 292.52 405.9 294.79 414.54 297.25"
                  stroke-dasharray="0 0"
                  transform="rotate(60.599999999999994, 400, 400)"
                  opacity="0.24"
                ></path>
                <path
                  d="M410.45 308.61C418.23 310.12 425.51 311.61 432.22 313.05 441.94 314.14 458.05 316.14 464.27 317.61 473.13 322.37 479.77 336.25 480.16 343.44 480.61 348.52 480.78 354.24 480.71 360.56 481.19 366.88 481.58 373.76 481.88 381.14 482.83 388.51 483.63 396.06 484.24 403.71 485.32 411.39 486.03 419.24 486.31 427.2 486.81 435.27 486.69 443.51 485.91 451.87 485.14 460.37 483.6 468.99 481.26 477.59 478.83 486.23 475.58 494.73 471.53 502.84 467.38 510.71 462.47 517.92 456.86 524.15 451.18 529.71 444.86 533.96 437.97 536.61 431.06 538.24 423.62 538.07 415.74 535.97 407.86 532.84 399.93 528.11 392.04 522.14 384.16 515.68 376.32 508.39 368.62 500.62 360.91 492.91 353.32 485.02 345.95 477.16 338.58 469.68 331.43 462.31 324.6 455.14 317.8 448.39 311.35 441.75 305.37 435.19 299.49 428.94 294.14 422.62 289.46 416.21 284.97 409.93 281.21 403.43 278.34 396.68 275.76 389.96 274.14 382.93 273.58 375.61 273.41 368.29 274.33 361.05 276.26 353.98 278.51 346.95 281.71 340.17 285.71 333.78 289.97 327.52 294.96 321.75 300.55 316.63 306.3 311.73 312.58 307.58 319.27 304.31 326.04 301.31 333.17 299.22 340.55 298.11 347.96 297.22 355.59 297.22 363.34 298.1 371.11 298.96 378.99 300.5 386.87 302.61 394.77 304.34 402.66 306.37 410.45 308.61"
                  stroke-dasharray="0 0"
                  transform="rotate(64.64, 400, 400)"
                  opacity="0.35"
                ></path>
                <path
                  d="M405.85 319.98C412.78 321.4 419.23 322.86 425.16 324.34 433.74 325.67 447.93 328.3 453.44 329.98 461.53 334.6 468.25 346.88 468.99 353.15 469.83 360.05 470.95 376.83 471.47 386.61 472.28 393.3 472.89 400.23 473.29 407.32 474.07 414.44 474.5 421.76 474.54 429.2 474.79 436.71 474.51 444.37 473.68 452.1 472.89 459.89 471.45 467.71 469.35 475.43 467.2 483.11 464.35 490.55 460.83 497.56 457.24 504.29 452.97 510.36 448.09 515.52 443.15 520.1 437.62 523.53 431.56 525.58 425.47 526.8 418.88 526.51 411.86 524.6 404.83 521.87 397.71 517.77 390.6 512.59 383.49 506.98 376.4 500.59 369.41 493.7 362.42 486.77 355.54 479.58 348.85 472.32 342.17 465.28 335.7 458.26 329.53 451.35 323.4 444.73 317.61 438.19 312.25 431.74 307 425.52 302.23 419.29 298.07 413.05 294.08 406.94 290.76 400.71 288.22 394.38 285.94 388.09 284.5 381.63 284 375.05 283.82 368.47 284.6 362.08 286.27 355.96 288.22 349.87 291 344.11 294.5 338.77 298.22 333.52 302.61 328.78 307.54 324.66 312.63 320.69 318.2 317.41 324.15 314.89 330.2 312.56 336.57 311.01 343.18 310.28 349.83 309.66 356.69 309.8 363.65 310.66 370.64 311.44 377.71 312.8 384.78 314.65 391.86 316.15 398.92 317.95 405.85 319.98"
                  stroke-dasharray="0 0"
                  transform="rotate(68.68, 400, 400)"
                  opacity="0.65"
                ></path>
                <path
                  d="M400.97 331.35C413.14 333.45 423.58 335.99 431.94 338.85 440.22 340.15 446.43 342.66 450.46 346.65 454.67 350.13 457.14 355.76 458.03 363.52 459.88 371.22 460.89 381.16 461.05 393.19 462.8 405.21 463.49 418.3 462.97 431.79 463.19 445.4 461.43 459.44 457.59 472.93 453.72 486.06 447.46 497.78 439.01 506.54 430.43 513.4 419.76 515.98 407.4 513.24 395.03 507.93 382.25 498.49 369.78 486.65 357.37 474.48 345.32 461.32 334.33 448.26 323.57 435.92 314.08 423.63 306.68 411.68 299.89 400.09 295.55 388.29 294.41 376.57 294.31 364.84 297.51 354.26 303.34 345.38 309.91 336.72 318.75 330.15 329.05 326.19 339.7 322.63 351.53 321.66 363.78 323.27 376.14 324.46 388.79 327.28 400.97 331.35"
                  stroke-dasharray="0 0"
                  transform="rotate(72.72, 400, 400)"
                  opacity="0.63"
                ></path>
                <path
                  d="M396.04 342.72C406.57 344.71 415.6 347.28 422.89 350.25 432.93 353.34 444.79 364.64 447.29 374.13 449.27 380.94 450.42 389.7 450.64 400.34 452.05 410.97 452.38 422.57 451.61 434.46 451.43 446.38 449.6 458.49 446.06 469.87 442.58 480.81 437.12 490.33 429.82 497.2 422.45 502.56 413.28 504.38 402.58 501.87 391.88 497.42 380.77 489.5 369.9 479.45 359.1 468.98 348.62 457.38 339.09 445.64 329.8 434.29 321.64 422.88 315.31 411.86 309.51 401.08 305.8 390.34 304.83 380.03 304.67 369.72 307.34 360.75 312.25 353.48 317.76 346.33 325.25 341.08 334.05 338.08 343.15 335.23 353.33 334.52 363.89 335.92 374.57 336.85 385.51 339.19 396.04 342.72"
                  stroke-dasharray="0 0"
                  transform="rotate(76.76, 400, 400)"
                  opacity="0.87"
                ></path>
                <path
                  d="M391.3 354.09C400.22 355.93 407.93 358.44 414.22 361.42 423 364.88 434.04 375.97 436.76 384.53 438.77 390.58 439.96 398.24 440.22 407.46 441.34 416.67 441.4 426.63 440.45 436.74 439.97 446.8 438.11 456.85 434.86 466.07 431.72 474.87 426.97 482.32 420.74 487.51 414.48 491.55 406.7 492.75 397.64 490.5 388.58 486.85 379.15 480.36 369.93 472.07 360.78 463.33 351.91 453.46 343.89 443.28 336.07 433.26 329.24 423.09 323.99 413.26 319.14 403.58 316.05 394.07 315.24 385.16 315.05 376.25 317.21 368.73 321.24 362.8 325.73 356.92 331.91 352.72 339.22 350.38 346.78 348.05 355.28 347.45 364.17 348.56 373.14 349.21 382.37 351.09 391.3 354.09"
                  stroke-dasharray="0 0"
                  transform="rotate(80.80000000000001, 400, 400)"
                  opacity="0.55"
                ></path>
                <path
                  d="M386.98 365.45C394.34 367.1 400.77 369.46 406.11 372.31 413.63 375.95 423.69 386.65 426.45 394.29 428.37 399.63 429.54 406.21 429.81 413.96 430.66 421.71 430.53 429.94 429.49 438.15 428.8 446.3 426.98 454.25 424.06 461.38 421.25 468.16 417.18 473.73 411.95 477.45 406.71 480.38 400.28 481.08 392.82 479.13 385.35 476.22 377.61 471.08 370.05 464.46 362.55 457.45 355.32 449.39 348.8 440.95 342.45 432.52 336.93 423.86 332.71 415.47 328.8 407.14 326.31 399.02 325.66 391.52 326.29 380.92 336.31 366.52 344.63 362.94 350.69 360.97 357.56 360.38 364.78 361.16 372.07 361.55 379.62 362.99 386.98 365.45"
                  stroke-dasharray="0 0"
                  transform="rotate(84.84, 400, 400)"
                  opacity="0.48"
                ></path>
                <path
                  d="M383.29 376.82C394.95 379.08 404.04 384.22 409.63 391.27 415.7 397.3 419.25 406.79 419.39 419.3 420.99 431.8 418.89 445.08 413.72 455.69 408.9 465.28 400.15 470.35 388.33 467.76 376.52 462.77 364.09 451.58 353.9 438.41 344.19 425.04 337.36 410.71 336.07 398.59 335.95 386.46 341.53 378.6 350.37 375.53 359.73 372.04 371.62 372.44 383.29 376.82"
                  stroke-dasharray="0 0"
                  transform="rotate(88.88, 400, 400)"
                  opacity="0.80"
                ></path>
                <path
                  d="M380.4 388.19C389.09 390.13 396.16 394.59 400.78 400.53 405.71 405.88 408.74 413.6 408.98 423.03 410.02 432.45 408.09 441.85 403.89 448.93 399.93 455.4 393.19 458.54 384.42 456.4 375.64 452.91 366.59 444.98 359.28 435.45 352.26 425.67 347.38 414.96 346.49 405.77 346.28 396.58 350.19 390.53 356.5 387.96 363.12 385.05 371.71 385.03 380.4 388.19"
                  stroke-dasharray="0 0"
                  transform="rotate(92.92, 400, 400)"
                  opacity="0.37"
                ></path>
                <path
                  d="M378.46 399.56C389.99 401.9 398.42 412.23 398.56 424.84 400.08 437.45 392.86 447.53 381.25 445.03 369.63 440.19 358.27 424.85 356.9 412.47 356.78 400.09 366.93 395.02 378.46 399.56"
                  stroke-dasharray="0 0"
                  transform="rotate(96.96, 400, 400)"
                  opacity="0.32"
                ></path>
              </g>
            </svg>