<svg xmlns="http://www.w3.org/2000/svg" version="1.1" xmlns:xlink="http://www.w3.org/1999/xlink" viewBox="0 0 1422 800" style="overflow: hidden; display: block;" width="1422" height="800"><defs></defs><g id="two-0" transform="matrix(1 0 0 1 0 0)" opacity="1"><path transform="matrix(1 0 0 1 0 0)" id="two-42" d="M 48.869503 409.917602 C 48.869503 409.917602 47.918338 409.628098 47.628833 409.917602 C 47.339331 410.207105 47.628833 410.748845 47.628833 411.158264 C 47.628833 411.567692 47.628833 411.989527 47.628833 412.398956 C 47.628833 412.808374 47.628833 413.230199 47.628833 413.639617 C 47.628833 414.049036 47.628833 414.470861 47.628833 414.880279 C 47.628833 415.289707 47.785515 415.742709 47.628833 416.120971 C 47.407256 416.655903 46.609741 416.826701 46.388164 417.361633 C 46.231486 417.739886 46.677667 418.312792 46.388164 418.602294 C 46.098659 418.8918 45.436996 418.312789 45.147491 418.602294 C 44.857981 418.891804 45.437001 419.553477 45.147491 419.842987 C 44.857987 420.132491 44.196326 419.553482 43.906822 419.842987 C 43.617319 420.132489 43.906822 420.67423 43.906822 421.083648 C 43.906822 421.493067 43.906822 421.914891 43.906822 422.32431 C 43.906822 422.733728 44.196324 423.275469 43.906822 423.564971 C 43.617317 423.854477 42.822827 423.943228 42.666149 423.564971 C 42.444573 423.030038 43.4974 422.733728 43.906822 422.32431 C 44.316243 421.914892 44.612558 421.305224 45.147491 421.083648 C 45.525748 420.92697 46.009907 421.240327 46.388164 421.083648 C 46.923097 420.862073 47.0939 420.064562 47.628833 419.842987 C 48.007089 419.686309 48.471034 419.937054 48.869503 419.842987 C 49.760509 419.632645 50.532 419.011719 51.350845 418.602294 C 52.169686 418.192872 52.973559 417.679258 53.832187 417.361633 C 55.415419 416.775961 57.174102 416.592939 58.794868 416.120971 C 61.281012 415.397005 63.718752 414.234542 66.238891 413.639617 C 69.056493 412.974471 72.096238 413.021348 74.923591 412.398956 C 79.098127 411.480006 83.16361 409.630839 87.330299 408.67694 C 97.43461 406.363716 108.278946 406.180268 118.347061 403.714263 C 124.634725 402.174213 130.761367 399.386821 136.957122 397.510894 C 145.892765 394.805395 155.244606 392.523389 164.251876 390.066864 C 173.259144 387.610339 182.592668 385.267091 191.54663 382.622863 C 200.611833 379.945785 209.805922 376.71392 218.8414 373.938171 C 229.862475 370.552435 241.260802 367.204902 252.339508 364.012786 C 262.553185 361.069912 273.120732 358.194041 283.356262 355.328094 C 293.5918 352.462144 304.098348 349.365624 314.373046 346.643402 C 324.163765 344.049406 334.372551 341.846127 344.149139 339.199371 C 354.029017 336.524651 363.946489 332.793015 373.925231 330.514678 C 383.636962 328.297306 393.840347 326.964654 403.701324 325.552001 C 413.906113 324.090096 424.479801 323.034951 434.718109 321.829986 C 445.360233 320.577495 456.323519 319.273436 466.975524 318.107971 C 478.841297 316.809704 491.034253 315.000904 502.954986 314.385955 C 511.541424 313.943011 520.412956 314.557808 529.009094 314.385955 C 539.250751 314.181205 549.78416 313.350044 560.025817 313.145294 C 569.440638 312.957074 579.144577 313.145294 588.561279 313.145294 C 601.662766 313.145294 615.161268 313.145294 628.262756 313.145294 C 636.041744 313.145294 644.05646 313.145294 651.835449 313.145294 C 657.157927 313.145294 662.641693 313.145294 667.964172 313.145294 C 672.467814 313.145294 677.10793 313.145294 681.611572 313.145294 C 686.115214 313.145294 690.75533 313.145294 695.258972 313.145294 C 697.715502 313.145294 700.246472 313.145294 702.703002 313.145294 C 705.159512 313.145294 707.690462 313.145294 710.146972 313.145294 C 711.784666 313.145294 713.493133 313.407623 715.10968 313.145294 C 716.387656 312.937907 717.60341 312.314052 718.831665 311.904632 C 720.05994 311.495205 721.275712 310.871332 722.55371 310.66394 C 723.361974 310.532776 724.238102 310.85207 725.035034 310.66394 C 725.926031 310.453604 726.697518 309.832693 727.516357 309.423278 C 728.335212 309.013856 729.255044 308.717921 729.997741 308.182617 C 730.937175 307.505514 731.409198 306.14442 732.479064 305.701263 C 736.639882 303.977781 741.647885 305.2268 746.126464 305.701263 C 751.955863 306.318832 757.785584 308.098081 763.495849 309.423278 C 770.073388 310.949746 776.749914 312.944284 783.346557 314.385955 C 789.857784 315.808959 796.760418 316.37961 803.197326 318.107971 C 810.325769 320.022014 817.185482 323.546356 824.288696 325.552001 C 829.930143 327.144907 836.062999 327.525205 841.658081 329.274017 C 846.73819 330.861868 851.561614 333.611004 856.546142 335.477355 C 861.396132 337.293332 866.461914 338.9921 871.434204 340.440032 C 876.296509 341.855937 881.439073 342.819948 886.322265 344.162048 C 890.443905 345.294843 894.581521 346.849639 898.728942 347.884063 C 902.780142 348.894488 907.014289 349.696608 911.135681 350.365417 C 914.393914 350.894155 917.856018 350.816447 921.061035 351.606079 C 924.457563 352.442894 927.544427 354.703946 930.986389 355.328094 C 933.806349 355.839451 936.805133 355.328094 939.671081 355.328094 C 942.946448 355.328094 946.321068 355.328094 949.596435 355.328094 C 952.871802 355.328094 956.246422 355.328094 959.521789 355.328094 C 962.797176 355.328094 966.171817 355.328094 969.447204 355.328094 C 972.722571 355.328094 976.102203 355.146966 979.372558 355.328094 C 983.074346 355.533117 986.889573 355.91297 990.538574 356.568756 C 993.86151 357.165942 997.113052 358.637595 1000.463928 359.050109 C 1005.746528 359.700431 1011.270172 359.050109 1016.592651 359.050109 C 1018.230344 359.050109 1019.938812 358.78778 1021.555358 359.050109 C 1022.833335 359.257496 1023.999367 360.083384 1025.277343 360.290771 C 1026.89387 360.553097 1030.207255 358.653425 1030.23999 360.290771 C 1030.444745 370.532429 1009.464924 361.326708 999.223266 361.531463 C 986.533753 361.785157 973.454561 361.531463 960.762512 361.531463 C 947.661024 361.531463 934.162067 361.640633 921.061035 361.531463 C 896.493195 361.326742 871.188628 360.495492 846.620788 360.290771 C 789.303788 359.813154 730.245869 360.290771 672.926879 360.290771 C 641.810864 360.290771 609.75194 360.290771 578.635925 360.290771 C 547.5199 360.290771 515.460124 360.061991 484.34494 360.290771 C 456.502024 360.495491 427.822225 361.326743 399.979309 361.531463 C 377.05234 361.700038 353.418642 360.830588 330.50177 361.531463 C 310.411949 362.145878 289.798713 364.639033 269.708892 365.253448 C 253.748924 365.741558 237.287434 364.957902 221.322738 365.253448 C 210.262678 365.458197 198.88469 366.289391 187.82463 366.49414 C 181.684362 366.607812 175.355889 366.49414 169.214569 366.49414 C 165.120355 366.49414 160.902074 366.49414 156.807861 366.49414 C 153.941912 366.49414 150.989117 366.49414 148.123168 366.49414 C 147.304322 366.49414 146.460661 366.49414 145.641815 366.49414 C 145.232396 366.49414 144.810571 366.49414 144.401153 366.49414 C 142.354046 366.49414 140.237931 366.325295 138.197799 366.49414 C 135.71587 366.699549 133.198464 367.259798 130.753768 367.734802 C 127.048387 368.454757 123.307032 369.571922 119.587738 370.216156 C 116.335307 370.779522 112.86739 370.667185 109.662368 371.456817 C 106.265838 372.293632 103.178971 374.554685 99.737007 375.178833 C 96.514193 375.763241 93.020119 374.520266 89.811637 375.178833 C 86.757256 375.805769 84.1292 378.058969 81.126945 378.900848 C 78.33942 379.682514 75.205607 379.278301 72.442245 380.14151 C 69.82069 380.96042 67.596046 382.972193 64.998222 383.863525 C 63.023572 384.541041 60.831656 384.646185 58.794868 385.104187 C 57.147907 385.47453 55.415416 385.759169 53.832187 386.344848 C 52.973557 386.662479 52.241851 387.375199 51.350845 387.58554 C 50.155439 387.867742 48.497347 386.717027 47.628833 387.58554 C 47.339331 387.875043 47.918336 388.536699 47.628833 388.826202 C 47.339329 389.115706 46.388164 388.826202 46.388164 388.826202 " fill="transparent" stroke="#fca311" stroke-width="65" stroke-opacity="1" fill-opacity="1" visibility="visible" stroke-linecap="butt" stroke-linejoin="miter" stroke-miterlimit="4"></path></g><path d="M 141.92645870144224 184.10806545721874 Q 141.92645870144224 184.10806545721874 161.1544564769662 167.82270471785023 180.38245425249016 151.53734397848174 201.32911189140248 177.89585614592846 222.2757695303148 204.25436831337515 216.21578861398052 236.02160890672502 210.15580769764628 267.7888495000749 234.2850428489342 290.16646421991356 258.4142780002221 312.5440789397522 225.41040767727634 303.7835926561246 192.4065373543306 295.02310637249695 183.64944237263927 260.20182927163404 174.89234739094798 225.3805521707711 202.24597306822238 205.75945169104068 229.5995987454968 186.13835121131027 263.1968967393143 185.38476806834814 296.7941947331318 184.631184925386 331.5207287258425 191.013681596203 366.2472627185532 197.39617826702 395.9160294643395 211.7892140963558 425.5847962101258 226.1822499256916 444.2416436285523 257.66473026823456 462.8984910469788 289.14721061077756 449.9411134195992 319.9612369302914 436.9837357922196 350.77526324980533 403.77613560483746 366.3530600711042 370.5685354174553 381.93085689240314 335.0585929834675 380.46862421945264 299.5486505494797 379.0063915465022 272.6634264890513 357.205032649517 245.77820242862293 335.40367375253186 244.73476489703702 298.6634106762042 243.69132736545112 261.9231475998765 263.8154033843243 235.03972728738765 283.9394794031976 208.15630697489883 315.0115257489733 194.374712929407 346.08357209474906 180.59311888391514 380.6919787181355 179.84482821671577 415.300385341522 179.09653754951637 448.66565790334414 190.64082822733678 482.0309304651663 202.1851189051572 505.03350293256966 228.13983985628533 528.036075399973 254.0945608074135 525.3141104622271 286.99410126500726 522.5921455244811 319.89364172260105 493.80838777769304 346.11941163214135 465.0246300309049 372.34518154168165 431.3395483992202 380.1222371995984 397.65446676753544 387.8992928575151 359.2943151735126 370.79449228956355 320.9341635794898 353.68969172161206 314.4600956899449 321.5883575208277 307.98602780040005 289.48702332004325 327.2651686331887 259.2212241298718 346.54430946597734 228.95542493970038 379.6922029704996 215.39306834520832 412.84009647502177 201.83071175071626 448.49824082757794 203.14365621596409 484.1563851801341 204.45660068121188 516.5613458135712 217.55492166552523 548.9663064470082 230.65324264983857 570.4718222957647 261.3047308618819 591.9773381445211 291.95621907392524 575.0822804909562 329.17431901977915 558.1872228373912 366.39241896563306 527.0095771218853 382.2858306213793 495.83193140637945 398.17924227712564 457.74864250407165 409.4453951041347 419.6653536017639 420.71154793114385 385.9704205318916 426.7857906703233 352.27548746201927 432.8600334095028 311.271892890862 426.3184790340613 270.2682983197046 419.7769246586197 252.78667790943547 378.4850203926785 235.3050574991663 337.1931161267373 251.82610914075383 308.1043416794158 268.34716078234135 279.0155672320943 300.37443463698673 253.03874254043106 332.4017084916321 227.0619178487678 372.50052151116506 211.3088150217008 412.59933453069806 195.55571219463383 453.9213539806033 190.28983078758492 495.2433734305086 185.023949380536 529.587573180805 186.9878574752488 563.9317729311012 188.9517655699616 595.894154621683 197.2693309815852 627.8565363122648 205.5868963932088 656.3886710508186 239.46926079915218 684.9208057893726 273.35162520509556 669.8568489918031 303.3685041558257 654.7928921942336 333.3853831065559 621.5983892540595 349.20349342112496 588.4038863138854 365.02160373569404 553.1663983417399 373.6110962488816 517.9289103695943 382.2005887620692 477.07549853029684 369.203494460216 436.2220866909994 356.2064001583628 430.7876242897046 321.2734653044098 425.3531618884097 286.34053045045675 446.25113455846343 260.64842830500027 467.14910722851715 234.95632615954375 502.77547499333355 220.903623700585 538.4018427581499 206.85092124162622 574.9773190784996 211.14912178968203 611.5527953988493 215.44732233773783 641.115535638124 237.33937740943472 670.6782758773987 259.2314324811316 679.8303784045299 290.68279676044693 688.9824809316611 322.13416103976226 668.2263575641704 352.75876922961424 647.4702341966796 383.3833774194662 614.3203498822018 397.81467866720004 581.170465567724 412.2459799149338 545.8948014990928 405.2261389752442 510.6191374304615 398.20629803555465 502.7099085910253 357.486014661988 494.80067975158903 316.76573128842136 513.2245545188322 287.8774727884396 531.6484292860754 258.98921428845784 561.6197035255575 233.4902115067192 591.5909777650395 207.99120872498054 624.9875315886602 191.28737027392847 658.3840854122808 174.5835318228764 691.6876721052533 165.3500998623083 724.991258798226 156.11666790174021 757.217960170096 161.63383445887752 789.4446615419661 167.1510010160148 804.4291437543536 199.25208565770197 819.413625966741 231.35317029938915 801.1023179668139 262.7291299936544 782.7910099668866 294.1050896879196 754.9444437191703 312.02801847222236 727.097877471454 329.95094725652507 692.0307675903589 342.56877787411224 656.9636577092637 355.1866084916995 620.1241159445756 334.8064618171117 583.2845741798875 314.42631514252395 586.3776061455648 281.71497063451056 589.470638111242 249.00362612649724 617.5631125617468 223.29036114231167 645.6555870122517 197.57709615812607 681.9117258205303 186.12311293764924 718.1678646288088 174.66912971717244 750.8515168083777 174.57636596273264 783.5351689879466 174.48360220829284 819.2954386796514 199.49029777242805 855.0557083713561 224.49699333656326 850.5242250053154 258.7691148342466 845.9927416392749 293.0412363319299 815.5143177384934 319.6570354432657 785.035893837712 346.2728345546015 750.5654248694927 363.78560895969923 716.0949559012736 381.29838336479696 684.8425092359569 392.519983368882 653.5900625706402 403.741583372967 618.1397246194433 391.0773266834632 582.6893866682466 378.41306999395937 579.5268488145273 346.29452485385025 576.3643109608081 314.1759797137412 599.2584414949879 287.6912896152213 622.1525720291676 261.20659951670143 653.6908039864287 242.5709302894005 685.2290359436898 223.93526106209958 721.9927474460169 210.5021878472088 758.756458948344 197.06911463231805 790.7470291347505 192.88975940994555 822.7375993211571 188.7104041875731 850.0604172342937 226.89500804782975 877.3832351474302 265.0796119080864 856.1074669163015 297.1717296191592 834.8316986851728 329.26384733023195 804.8299896965632 350.64637471699746 774.8282807079537 372.0289021037629 744.2983431104938 385.9718730563776 713.7684055130337 399.91484400899236 674.6474442706397 383.94836906089654 635.5264830282455 367.98189411280066 642.5326647539171 326.85129929577784 649.5388464795886 285.720704478755 680.5332915452605 260.80390133082517 711.5277366109323 235.88709818289536 750.2500836391443 218.49635399191254 788.9724306673564 201.10560980092976 822.4749262108357 191.1375669216053 855.977421754315 181.1695240422808 890.7172479758112 176.45815936659585 925.4570741973075 171.74679469091092 957.2263070960895 191.63354042005125 988.9955399948715 211.5202861491916 990.3143823646483 249.4843553935233 991.6332247344251 287.448424637855 972.4748039624689 325.89710663286115 953.3163831905126 364.3457886278673 932.4590407507169 389.7922539084876 911.6016983109213 415.2387191891079 877.0777609851533 438.21740268494887 842.5538236593853 461.1960861807898 802.4411318358909 464.0454275027081 762.3284400123965 466.8947688246264 737.6776482712469 432.38317904446643 713.0268565300972 397.87158926430646 724.4113241215275 358.8636262539783 735.7957917129577 319.85566324365004 766.1318096576972 288.7350309425971 796.4678276024367 257.6143986415442 832.1771349767337 238.93496850430392 867.8864423510305 220.25553836706368 908.4469417381429 211.8082611190382 949.0074411252551 203.36098387101276 987.7290924367586 222.0640948776097 1026.450743748262 240.76720588420667 1023.4198520731513 283.1574547542564 1020.3889603980407 325.5477036243061 991.422248597529 351.4291111050756 962.4555367970173 377.3105185858451 927.3043005504055 394.71305821272153 892.1530643037937 412.11559783959797 856.8406738357032 425.56409926161894 821.5282833676129 439.01260068363996 784.2079073194392 435.520037434149 746.8875312712655 432.027474184658 731.2242284997913 400.49344197604864 715.560925728317 368.95940976743935 735.3377253124484 327.3937311028915 755.1145248965798 285.82805243834366 781.22354426777 263.00839494127865 807.33256363896 240.1887374442136 838.1147262316274 223.1206680325467 868.8968888242948 206.0525986208798 899.9026349388166 195.3973773440792 930.9083810533384 184.74215606727856 970.8161535517422 179.12583956247136 1010.7239260501461 173.50952305766413 1047.2765786667546 184.1003501000182 1083.8292312833632 194.6911771423723 1102.361561796986 234.56179501557796 1120.8938923106089 274.43241288878363 1105.863307533602 315.0759032917713 1090.8327227565953 355.7193936947589 1058.6216732122116 389.20042491708364 1026.4106236678278 422.68145613940834 993.0128186596555 444.4271977335146 959.6150136514833 466.17293932762084 924.0615280321545 480.6503787298227 888.5080424128255 495.1278181320245 849.1179256951265 471.54514999475475 809.7278089774275 447.962481857485 816.7737854349534 404.4428495815642 823.8197618924794 360.9232173056434 853.8138661704662 325.30802098533485 883.807970448453 289.6928246650263 912.5604814837473 271.67794537963385 941.3129925190414 253.6630660942414 978.4868393786285 239.65288065461277 1015.6606862382157 225.64269521498417 1050.0152285975475 224.3250099388352 1084.3697709568794 223.00732466268624 1114.280999031812 251.73062946290958 1144.1922271067442 280.4539342631329 1133.593913708226 321.1380834047367 1122.9956003097077 361.82223254634044 1089.8290527179333 390.9078758966226 1056.6625051261592 419.9935192469048 1018.9409540916447 436.9323881145774 981.2194030571302 453.8712569822501 941.9283940323439 463.24352962121907 902.6373850075576 472.61580226018805 865.0015847321376 452.2857541339346 827.3657844567177 431.9557060076811 827.4485116473962 399.05221984217155 827.5312388380747 366.148733676662 846.4964088195318 340.10992141569966 865.4615788009887 314.0711091547373 895.0694436150496 294.4210639627929 924.6773084291106 274.77101877084857 961.9093039958107 261.7967985455135 999.1412995625109 248.82257832017842 1035.64792068646 242.6543328804912 1072.1545418104095 236.486087440804 1116.6516471909881 236.43169498011633 1161.1487525715665 236.37730251942864 1196.8115113339957 249.7846606099074 1232.4742700964248 263.19201870038614 1245.8664310096076 301.00906951160954 1259.2585919227904 338.82612032283294 1234.7457967391238 378.5656744305645 1210.233001555457 418.30522853829603 1171.6768755767846 441.9072252294827 1133.1207495981123 465.50922192066935 1097.1913743145033 477.4220982951334 1061.261999030894 489.33497466959744 1018.8348068954431 489.15841100086607 976.407614759992 488.98184733213463 950.0538760876716 453.6698253682183 923.700137415351 418.35780340430193 937.7474983645386 378.6624655914773 951.7948593137261 338.9671277786527 982.9755897058054 313.6190566450102 1014.1563200978848 288.27098551136766 1049.0793140677256 276.512330180252 1084.0023080375665 264.7536748491363 1127.0483163003503 270.19316312712476 1170.094324563134 275.6326514051132 1193.4191250290055 307.178931295696 1216.7439254948767 338.7252111862788 1215.1889731372196 374.8584344254967 1213.6340207795624 410.9916576647146 1191.1149133984436 443.63809044005416 1168.5958060173248 476.28452321539373 1129.293332593758 493.29421906220375 1089.990859170191 510.3039149090137 1052.2832666845609 512.1925943679153 1014.5756741989306 514.0812738268169 976.8571421808516 491.8978021878602 939.1386101627726 469.71433054890355 931.4823671639838 436.3365359792132 923.8261241651951 402.95874140952276 936.5223841232424 371.4576789080391 949.2186440812898 339.95661640655544 974.6022668323484 314.22108446955906 999.985889583407 288.4855525325627 1035.620630224907 269.4731817946033 1071.2553708664072 250.46081105664388 1104.3694552305312 239.0928738316427 1137.4835395946552 227.72493660664153 1177.4876439655477 219.6960695347405 1217.4917483364404 211.6672024628395 1256.6389162784071 213.9224424485268 1295.786084220374 216.1776824342141 1315.4848949957272 247.02276018917928 1335.1837057710807 277.86783794414447 1309.2352058915837 311.8153620421429 1283.2867060120868 345.76288614014135 1248.0750859114996 362.972912461065 1212.8634658109124 380.1829387819887 1182.082837931594 393.11218545491334 1151.3022100522753 406.041432127838 1120.0681675744481 415.1232925435554 1088.8341250966212 424.20515295927277 1060.1993496154723 408.51488202342136 1031.5645741343235 392.82461108756996 1032.1360811271243 360.61300291746863 1032.7075881199248 328.40139474736725 1064.7009969780638 303.4833694650589 1096.6944058362028 278.5653441827506 1134.0682574620498 270.5383084586548 1171.4421090878968 262.511272734559 1202.4622072190084 286.40830671265803 1233.48230535012 310.3053406907571 1226.5006483075686 347.04695137820477 1219.518991265017 383.7885620656524 1188.295281980273 410.97741676154385 1157.0715726955295 438.1662714574353 1125.1972724675952 448.98684679391596 1093.322972239661 459.8074221303966 1053.5425439270607 461.3494932865789 1013.7621156144604 462.89156444276114 977.3967999899851 457.86794978416617 941.0314843655098 452.8443351255712 909.9420561563201 443.83396641895854 878.8526279471304 434.8235977123459 841.3823610103593 403.03370749437806 803.9120940735883 371.2438172764103 799.1258801016218 334.33423971362686 794.3396661296554 297.42466215084346 813.6114920813034 263.7180175726663 832.8833180329514 230.01137299448922 864.8372422794193 208.38088020192708 896.7911665258872 186.75038740936495 935.0172183698033 174.6413074241234 973.2432702137195 162.53222743888188 1013.5437708313027 158.92691761225035 1053.844271448886 155.32160778561885 1089.7585385286038 157.81626720747835 1125.6728056083214 160.3109266293378 1167.0134730973507 169.8120602272113 1208.35414058638 179.3131938250848 1238.657191273393 197.10864011688568 1268.9602419604062 214.90408640868654 1284.2622800318738 251.8985038908359 1299.5643181033415 288.89292137298526 1291.718088127269 321.5031899752818 1283.8718581511966 354.1134585775784 1261.1264273785741 380.1572764652601 1238.3809966059519 406.2010943529419 1200.7517860477049 421.8934894071775 1163.1225754894579 437.5858844614131 1125.4516854829449 440.8313687077758 1087.7807954764319 444.0768529541386 1054.9845831564037 438.48429262537275 1022.1883708363754 432.89173229660696 994.9170663262762 399.7702778043363 967.645761816177 366.64882331206564 981.6466922660893 321.6304476854491 995.6476227160016 276.61207205883255 1021.1148571650676 252.76495808144517 1046.5820916141338 228.9178441040578 1084.2287607098797 211.9952548275034 1121.8754298056258 195.072665550949 1160.3852154066433 187.25563020774308 1198.8950010076608 179.43859486453718 1217.1097781614471 178.08521086654724 1235.3245553152335 176.73182686855728 1243.5078992897697 177.4242050149166 1251.6912432643057 178.11658316127588 1259.225103912528 181.38574969669378 1266.7589645607507 184.65491623211165 1272.8545446840449 190.1585885573537 1278.9501248073389 195.66226088259577 1282.9692155577186 202.82420305238077 1286.9883063080981 209.98614522216573 1288.5101078230618 218.05650000074803 1290.0319093380256 226.12685477933033 1288.89708859724 234.26065389102564 1287.7622678564546 242.39445300272092 1284.0896408910437 249.74008553342026 1280.4170139256328 257.0857180641196 1274.5911057483543 262.8740943488001 1268.7651975710758 268.6624706334806 1261.3959823059813 272.2875461471533 1254.0267670408866 275.91262166082595 1245.8858034715154 276.99485004028224 1237.744839902144 278.0770784197386 1229.6844890632146 276.50315006796893 1221.6241382242854 274.92922171619927 1214.48832097636 270.86392734711063 1207.3525037284346 266.798632978022 1201.8883420210439 260.66760998519146 1196.424180313653 254.53658699236095 1193.2037733199593 246.9817551015708 1189.9833663262655 239.42692321078061 1189.3438915086133 231.23927531527843 1188.7044166909611 223.05162741977625 1190.7128272315636 215.08841241555035 1192.7212377721662 207.12519741132448 1197.1672525572535 200.22016601140186 1201.6132673423408 193.31513461147924 1208.0313874502804 188.1912454261831 1214.4495075582197 183.06735624088694 1222.1677541194908 180.26108182049313 1229.8860006807622 177.45480740009933 1238.096271242981 177.25996541720758 1246.3065418051997 177.06512343431586 1254.1492188732004 179.50211389596828 1261.9918959412014 181.9391043576207 1268.6458491556991 186.7527737191792 1275.2998023701969 191.5664430807377 1280.0683610731603 198.25279888936188 1284.836919776124 204.93915469798605 1287.2208146125759 212.79813373548643 1289.604709449028 220.65711277298678 1289.3543460003045 228.86587785956803 1289.103982551581 237.07464294614928 1286.2455739368534 244.7737342103428 1283.3871653221254 252.47282547453636 1278.2199876779018 258.85614602861847 1273.052810033678 265.2394665827006 1266.1178682233112 269.6386810796258 1259.1829264129444 274.03789557655114 1251.2063106746266 275.99240509721164 1243.2296949363088 277.94691461787215 1243.2372860679468 277.94632173239614 1243.2448771995848 277.94572884692013 1229.0926433511645 279.12517028655253 1214.9404095027442 280.30461172618493 1173.6650491828732 291.44045795068683 1132.389688863002 302.57630417518874 1102.0681695074836 319.7518994219532 1071.746650151965 336.92749466871766 1105.0783794615347 335.5704800785487 1138.4101087711044 334.2134654883797 1163.7524777954488 307.52416688248354 1189.0948468197932 280.8348682765873 1152.3291971497727 269.9250620859049 1115.563547479752 259.01525589522254 1071.68312154368 257.77767661710845 1027.8026956076078 256.5400973389944 986.8284139241844 267.04232393186726 945.8541322407608 277.54455052474015 929.668467014136 307.6257924043806 913.4828017875112 337.707034284021 949.5372247952696 346.22426930066274 985.591647803028 354.7415043173045 1025.85700013873 354.85626909637716 1066.122352474432 354.97103387544985 1096.173355405239 368.4912107379039 1126.2243583360455 382.0113876003579 1111.2837265738094 347.93886494558853 1096.343094811573 313.8663422908192 1132.7473856157635 298.83745435404046 1169.151676419954 283.80856641726166 1202.398959285577 267.14015642261927 1235.6462421511999 250.47174642797688 1246.6873589511329 281.90034012988446 1257.7284757510658 313.328933831792 1224.7045228349943 316.772661595945 1191.6805699189229 320.216389360098 1153.6751501445278 332.6126337414926 1115.6697303701326 345.0088781228872 1082.2735344866555 375.795675066596 1048.8773386031787 406.58247201030474 1081.7649014979525 388.2054127773576 1114.6524643927262 369.82835354441045 1083.136408182155 376.74523569394523 1051.620351971584 383.6621178434801 1081.5145734057676 359.92216333488454 1111.4087948399513 336.18220882628907 1070.4151698343153 342.27913072839107 1029.4215448286795 348.37605263049306 993.5356891008645 363.5621028787103 957.6498333730494 378.7481531269275 925.1029717700246 372.3821649438237 892.5561101669997 366.0161767607199 927.2046761300221 356.7381436746531 961.8532420930445 347.46011058858636 995.735595932407 339.3091044945197 1029.6179497717694 331.158098400453 992.859485305638 349.6301937695911 956.1010208395066 368.1022891387292 923.8495718672889 375.50429334101534 891.598122895071 382.90629754330143 924.8956638749852 362.43459772910296 958.1932048548994 341.96289791490443 969.8909778934393 311.2143216207929 981.5887509319792 280.4657453266813 948.8455802952933 290.3880169840545 916.1024096586073 300.31028864142763 873.1551876766031 310.5199730145888 830.2079656945989 320.72965738774997 869.9286309855809 320.3904101506673 909.6492962765627 320.0511629135846 872.1620399615186 328.88115614061144 834.6747836464746 337.7111493676383 858.8847936588813 311.82239009451143 883.0948036712882 285.9336308213845 845.8962227851997 298.19796021460166 808.6976418991112 310.46228960781883 773.6769878661696 326.493098834262 738.6563338332281 342.5239080607052 723.3537199178099 312.13288868603024 708.0511060023917 281.7418693113553 738.074785876137 263.3480714536904 768.0984657498823 244.95427359602547 790.6333122309086 271.6086635969731 813.168158711935 298.26305359792065 781.4802044549779 307.2597393902166 749.7922501980208 316.25642518251266 715.4096155713283 327.979263359955 681.0269809446359 339.70210153739725 681.9042144800417 306.91244657806976 682.7814480154476 274.1227916187422 719.2461258108215 279.13004395217007 755.7108036061952 284.1372962855979 722.8895240353347 290.48921279967954 690.0682444644743 296.84112931376114 677.78306901436 266.3645496735869 665.4978935642456 235.88797003341273 695.9212502825475 251.8033555410803 726.3446070008494 267.71874104874786 691.1343157975041 283.13426544369025 655.9240245941589 298.54978983863265 628.7343846364076 323.2528489846242 601.5447446786563 347.9559081306158 576.3027549088749 321.51755360413347 551.0607651390935 295.07919907765114 516.3336151806801 293.975295397828 481.60646522226676 292.8713917180049 444.012717413819 302.18979942965825 406.4189696053712 311.50820714131163 366.3689316673575 318.1240176081654 326.31889372934376 324.73982807501915 358.8075191957594 319.2699048733506 391.2961446621751 313.7999816716821 427.53178038734643 315.0627067336874 463.76741611251776 316.3254317956927 432.5290904481948 304.4476327597016 401.29076478387185 292.56983372371053 368.94253881949055 300.83133589066756 336.5943128551092 309.0928380576246 306.1879199008033 294.08932477690814 275.7815269464975 279.0858114961917 292.0826552716379 244.52856456799833 308.3837835967783 209.97131763980497 325.8173024145317 239.59169197595384 343.25082123228515 269.2120663121027 333.1141575665707 303.43991550378394 322.97749390085636 337.6677646954652 300.3031320208303 363.398431587324 277.62877014080425 389.12909847918286 242.40331853648647 393.6728948992601 207.17786693216868 398.2166913193373 174.24706916464783 393.3224747669211 141.31627139712694 388.428258214505 114.56402516661177 370.2787778989381 87.8117789360966 352.1292975833711 84.97435884561433 317.5044501776579 82.13693875513206 282.8796027719446 98.10650741855727 254.50617961340623 114.07607608198249 226.13275645486786 127.99462375374668 205.12788504960582 141.91317142551088 184.12301364434376 141.91981506347656 184.11553955078125 Z" fill="#fca311"></path><path d="M 718.8242730760027 418.6090298221803 Q 718.8242730760027 418.6090298221803 696.181868238632 431.14129637799545 673.5394634012613 443.67356293381056 652.6916452816408 416.7676641412288 631.8438271620204 389.861765348647 643.6378326522345 352.90916583167876 655.4318381424487 315.9565663147105 687.0625948835145 301.9516549841001 718.6933516245803 287.9467436534897 749.6754515264589 313.5857770770016 780.6575514283376 339.2248105005135 761.7011722854663 370.88976348455327 742.7447931425951 402.554716468593 710.6270638298199 415.30725106773195 678.5093345170447 428.05978566687094 635.2489794172095 436.51094720781896 591.9886243173742 444.9621087487669 551.7688861111646 448.9583061833295 511.54914790495513 452.9545036178921 478.3825437102241 452.3284854787972 445.2159395154931 451.70246733970225 413.46012972076346 437.50897807184236 381.7043199260338 423.3154888039825 370.68693055502376 381.25825908888646 359.6695411840137 339.20102937379045 380.91946001625297 304.81081551757154 402.1693788484923 270.4206016613527 435.86466691467206 249.41375489077979 469.5599549808519 228.40690812020685 505.8372856893678 218.12506002885345 542.1146163978837 207.84321193750003 574.5846480603599 210.50414620139443 607.0546797228361 213.16508046528884 626.4827179190671 247.8850275122137 645.9107561152981 282.60497455913855 620.679642263583 314.14072859108353 595.448528411868 345.67648262302856 561.2457247107141 360.83929650865036 527.0429210095601 376.00211039427217 495.87064801032744 384.75074394229557 464.69837501109475 393.499377490319 429.46643214900814 400.2817532136735 394.2344892869216 407.064128937028 361.3009200131422 411.8524094693702 328.3673507393628 416.6406900017123 286.35951824626045 419.5020845121449 244.35168575315814 422.3634790225775 208.9663855672821 416.7400484834272 173.581085381406 411.11661794427687 139.9995792668417 385.3772596866273 106.4180731522774 359.6379014289777 101.18071220123443 325.7734521022594 95.94335125019145 291.909002775541 118.95664255096986 259.1482331724675 141.96993385174827 226.38746356939401 174.40582412434048 214.2819376126712 206.84171439693267 202.17641165594839 239.2438232128536 203.9054883815612 271.64593202877455 205.63456510717404 292.7382395279295 242.43982261861237 313.83054702708455 279.2450801300507 294.07019663618155 305.38460829382865 274.3098462452786 331.5241364576066 239.7784722202501 348.6937718996481 205.2470981952216 365.8634073416896 167.81299103665657 369.6631026351397 130.3788838780915 373.46279792858985 99.1829611456035 348.3005712506612 67.9870384131155 323.1383445727326 64.4046049175927 286.072651427688 60.8221714220699 249.00695828264338 72.76301801077952 218.88688117792992 84.70386459948914 188.76680407321646 120.97577378732976 169.5185112990083 157.24768297517036 150.27021852480013 189.17554903059488 160.3397235656972 221.1034150860194 170.40922860659427 241.88384422042714 198.33220968237225 262.66427335483485 226.2551907581502 260.8386926386605 259.83119304370183 259.01311192248613 293.40719532925345 237.26781585310135 320.117141214565 215.52251978371655 346.82708709987645 182.8256951897788 368.7642203247284 150.12887059584108 390.7013535495804 119.852713091396 404.56688172042686 89.57655558695092 418.43240989127327 55.59300216014539 420.78740667038903 21.60944873333986 423.14240344950474 -2.9862835996608226 399.9381993971041 -27.582015932661506 376.73399534470343 -24.342731611593926 343.7381501462041 -21.10344729052635 310.7423049477047 4.144398915055232 286.20848015645345 29.392245120636815 261.67465536520217 63.59346117998698 251.7245427546164 97.79467723933715 241.77443014403065 131.7145864618796 246.92377158047503 165.6344956844221 252.0731130169194 194.847261671596 269.2879905754979 224.06002765876988 286.5028681340763 228.6929542596428 327.25054474136675 233.3258808605157 367.99822134865724 204.50787052733222 394.8886792868585 175.68986019414876 421.77913722505974 141.00248982760047 433.58322458423754 106.31511946105216 445.38731194341534 67.99969151179376 427.0110165533121 29.68426356253535 408.6347211632089 26.264497416741392 375.88374924668767 22.844731270947435 343.13277733016645 45.946328649090574 310.719443314164 69.04792602723371 278.3061092981615 105.78350587123072 261.4186599276567 142.51908571522773 244.53121055715178 178.76221907106412 243.04698801833374 215.00535242690054 241.5627654795157 248.63869849081618 255.2511846869786 282.27204455473185 268.9396038944415 295.8942811397933 308.20246376802265 309.51651772485474 347.46532364160385 286.0352990431952 378.2185083304641 262.55408036153574 408.97169301932433 229.3940825601653 430.0778726493663 196.23408475879484 451.1840522794083 159.92809972528738 466.95872744318206 123.62211469177996 482.7334026069558 81.8511266381624 467.42088736694404 40.08013858454485 452.1083721269323 43.498144376619265 411.1106951523903 46.91615016869368 370.1130181778483 71.9699716029731 344.8538870375145 97.02379303725252 319.59475589718073 129.9026680942872 301.32763027310625 162.7815431513219 283.06050464903177 198.8549708261056 273.73204444285886 234.9283985008893 264.403584236686 275.9142540940926 265.49887932500906 316.9001096872959 266.59417441333204 350.90725342909985 276.7525196834671 384.9143971709038 286.91086495360213 402.5196789878737 325.6186774362824 420.12496080484357 364.32648991896264 393.0184806506795 390.55417828564543 365.9120004965154 416.78186665232823 334.2475356237184 423.47439601947065 302.5830707509214 430.1669253866131 275.74219996807415 400.34184217912366 248.90132918522693 370.51675897163426 267.5820941254082 336.349461036095 286.2628590655895 302.1821631005557 319.0740350708003 285.79911198780394 351.88521107601105 269.4160608750522 385.82392888864797 263.3461026018955 419.76264670128495 257.2761443287388 451.78656470629835 261.41497784857313 483.8104827113117 265.5538113684075 510.0850131497532 299.21085348784857 536.3595435881947 332.86789560728965 519.4052144655471 361.37184828577415 502.45088534289954 389.8758009642586 472.7629888699709 404.3114158243386 443.0750923970423 418.7470306844187 411.7545504415224 430.8670914261775 380.4340084860024 442.98715216793636 344.5464063073248 451.01775038503365 308.65880412864715 459.048348602131 278.30357847536425 434.19720764763315 247.9483528220814 409.3460666931353 258.64114691361397 372.6472283707808 269.3339410051466 335.9483900484263 298.0532727446565 316.45337505828275 326.7726044841665 296.95836006813926 358.4551112094068 288.7211321943439 390.13761793464715 280.4839043205485 424.6677362025156 280.36652232294193 459.1978544703841 280.2491403253353 489.8305980404503 311.08770887530886 520.4633416105165 341.92627742528236 503.9509055109784 371.8910393635608 487.43846941144017 401.8558013018393 456.0964223642452 414.625031389559 424.7543753170502 427.39426147727875 390.03180759375925 436.2260915557596 355.30923987046833 445.0579216342404 323.32689378623445 448.87505559426234 291.34454770200057 452.6921895542842 258.68029649788616 431.11777009375953 226.0160452937718 409.5433506332348 232.8294513811335 375.2580571093895 239.6428574684952 340.97276358554416 265.6135841976711 319.56424417546714 291.584310926847 298.1557247653902 328.2452338259528 282.06788086384927 364.9061567250586 265.98003696230836 402.033284456872 256.12691965429417 439.16041218868537 246.27380234627992 471.2384872032263 242.10971132174998 503.3165622177673 237.94562029722005 539.2458073707934 239.84810669887108 575.1750525238195 241.7505931005221 602.6848114479559 265.43574017102446 630.1945703720922 289.1208872415269 621.7187594899224 323.60581733974664 613.2429486077525 358.09074743796634 575.9971083461596 382.8565025369455 538.7512680845667 407.62225763592477 500.9546036821636 424.10086596558074 463.1579392797605 440.5794742952367 432.3359501411107 451.94023400284016 401.51396100246086 463.30099371044355 360.5925036316062 469.28190480792136 319.67104626075144 475.2628159053992 297.40656130598995 445.7276771781759 275.1420763512284 416.19253845095267 297.2876761857577 381.8508383937583 319.43327602028694 347.5091383365639 358.0579845881174 327.90031549893666 396.68269315594785 308.2914926613094 440.6091036474215 295.9292432577531 484.5355141388951 283.56699385419677 521.4423832885609 277.65399875759624 558.3492524382268 271.7410036609958 591.5125463028926 270.1872503572495 624.6758401675582 268.6334970535033 658.0100208216877 285.289760585677 691.3442014758173 301.94602411785075 687.385531132353 342.1945704805104 683.4268607888887 382.44311684317006 656.7666090210847 403.8886069666456 630.1063572532807 425.33409709012125 593.9752210191446 442.1079035113429 557.8440847850082 458.8817099325645 521.5668509610813 465.53153471391096 485.28961713715427 472.1813594952574 455.81916419999095 449.2242623820449 426.34871126282763 426.26716526883246 439.68857236394547 389.26650167692276 453.02843346506336 352.26583808501306 482.1598806833826 337.13079033337806 511.29132790170183 321.99574258174306 546.3382980643864 312.3552760566839 581.3852682270709 302.7148095316247 615.7515722094543 297.4447144905865 650.1178761918376 292.17461944954823 689.055000736581 291.64538432768785 727.9921252813242 291.11614920582747 760.4417883871745 297.8955409359181 792.8914514930248 304.6749326660087 813.7526592559692 343.10747682751776 834.6138670189137 381.54002098902686 807.1452515168876 409.5237407478861 779.6766360148616 437.5074605067454 747.9509629346894 447.10562200638253 716.2252898545173 456.7037835060196 680.7201726807525 451.92394246943115 645.2150555069876 447.1441014328427 630.8461662843335 417.8782432816741 616.4772770616796 388.61238513050546 638.5839564401347 359.7335955622983 660.6906358185897 330.8548059940911 692.9820615235817 314.2956733320975 725.2734872285738 297.736540670104 757.2936164662344 286.3505008470866 789.313745703895 274.96446102406924 826.7409304918583 266.0446838707145 864.1681152798217 257.12490671735975 900.4103390499104 272.8553807519679 936.652562819999 288.585854786576 933.8541449036907 322.8728793605991 931.0557269873823 357.1599039346222 899.758984350998 376.1441423510106 868.4622417146138 395.128380767399 833.013639799053 407.5382379856276 797.565037883492 419.94809520385616 754.7930757089011 432.0307608950303 712.0211135343104 444.11342658620447 673.0421798374384 454.1364847947377 634.0632461405665 464.159543003271 597.962524410365 472.1982763985367 561.8618026801634 480.23700979380243 519.9019760694007 460.08601750468745 477.94214945863814 439.9350252155725 488.69169839478826 398.3442939238651 499.4412473309384 356.7535626321577 535.7133641978727 333.5264318703644 571.985481064807 310.2993011085711 614.3337234571557 295.72710577697654 656.6819658495043 281.154910445382 695.31355713273 274.28855150008576 733.9451484159556 267.42219255478955 771.9388592368721 267.7117261389285 809.9325700577884 268.0012597230675 841.4975388980663 283.2824459917198 873.062507738344 298.5636322603721 879.169260378854 337.60439486931 885.276013019364 376.64515747824794 863.1583745953133 407.6663839933679 841.0407361712626 438.68761050848786 798.4745555235877 450.5957600927399 755.908374875913 462.50390967699195 735.6486263380752 423.96273442377355 715.3888778002377 385.4215591705552 738.2545333722602 354.20892152227117 761.1201889442827 322.9962838739871 804.687279007981 300.885694663599 848.2543690716793 278.7751054532108 882.6822109507635 270.5622377917894 917.1100528298477 262.349370130368 951.3094022432456 259.2878937994872 985.5087516566433 256.2264174686064 1020.8997351101868 255.3152183542336 1056.2907185637305 254.40401923986076 1090.1582382925906 265.7046837701374 1124.0257580214507 277.005348300414 1135.9359352557703 316.47349286651 1147.8461124900903 355.94163743260594 1134.2792630781428 387.4494089184197 1120.7124136661953 418.95718040423344 1101.013311816469 445.2930220736498 1081.3142099667427 471.6288637430662 1051.4132153879048 497.66894268420697 1021.5122208090669 523.7090216253478 982.0594396493696 532.1199158462437 942.6066584896721 540.5308100671396 914.268550480054 504.92441839352614 885.9304424704359 469.3180267199128 898.6642246526026 427.2953378780148 911.3980068347693 385.2726490361168 932.4603737511006 360.48755748445717 953.5227406674319 335.70246593279757 980.9609277801605 316.70563794200353 1008.3991148928892 297.7088099512095 1049.523937392748 281.58726289300364 1090.648759892607 265.4657158347977 1128.0336168166236 262.5206722669835 1165.4184737406401 259.57562869916933 1199.8296792998003 281.45568645871435 1234.2408848589607 303.33574421825944 1235.7738443793787 338.27259808386634 1237.3068038997967 373.2094519494732 1204.6055908480505 409.86816242206555 1171.9043777963043 446.52687289465786 1137.4817992584215 461.5974458627219 1103.0592207205386 476.66801883078597 1063.1543542522093 483.951845031822 1023.2494877838798 491.23567123285807 986.0398796946937 492.8718543345302 948.8302716055076 494.5080374362024 906.2981182841721 492.9019594615662 863.7659649628366 491.29588148693006 828.8138267403572 480.1295209369826 793.8616885178776 468.96316038703515 774.8036501514449 427.5023222001953 755.7456117850122 386.0414840133554 768.8462436435143 356.3495059493929 781.9468755020165 326.65752788543034 807.8130782192103 304.05668429416374 833.6792809364041 281.45584070289715 867.4531363069121 265.04704058448 901.2269916774202 248.63824046606283 937.7735010765041 237.74176920939703 974.320010475588 226.84529795273122 1010.0032190532461 220.45355009851488 1045.6864276309043 214.06180224429852 1090.5936060283157 210.98168190960905 1135.5007844257268 207.90156157491955 1172.4270263177505 212.93355181204225 1209.3532682097741 217.96554204916498 1239.0640528991203 239.57309942034564 1268.7748375884662 261.1806567915263 1276.5242022979705 301.92838896732235 1284.273567007475 342.6761211431184 1272.5398163975613 379.95639537631774 1260.8060657876474 417.2366696095171 1242.0006804905277 448.8086010785363 1223.195295193408 480.3805325475555 1191.3169766064148 507.9299360987265 1159.4386580194216 535.4793396498975 1122.2225228694037 533.891218389924 1085.006387719386 532.3030971299506 1065.9320475519742 492.15274221531456 1046.8577073845622 452.00238730067844 1059.6561492691521 410.7281427555389 1072.4545911537423 369.4538982103994 1105.1889618226874 334.08905869034345 1137.9233324916322 298.72421917028754 1166.8217375669733 283.8081298741084 1195.7201426423142 268.8920405779292 1236.7573168256536 260.0055215417574 1277.7944910089932 251.11900250558557 1312.8456511451095 255.70628536257576 1347.8968112812258 260.29356821956594 1375.8644093896123 282.2694348854435 1403.8320074979986 304.24530155132106 1406.793350321691 344.45643635424153 1409.7546931453833 384.66757115716206 1380.2758198012916 414.30212374349014 1350.7969464572002 443.93667632981817 1305.886401852908 448.8331330909229 1260.9758572486157 453.72958985202763 1227.5513819729485 447.01855733530124 1194.1269066972811 440.30752481857485 1163.3269852100445 420.7378962681521 1132.527063722808 401.16826771772935 1126.0948307717822 361.71264168469986 1119.6625978207562 322.2570156516703 1148.459118864591 293.43172131553735 1177.2556399084258 264.6064269794044 1212.1245192411182 258.63952037156656 1246.9933985738105 252.67261376372875 1286.178009129594 264.0835179461754 1325.3626196853775 275.49442212862203 1344.9171249980725 307.1851991370297 1364.4716303107675 338.87597614543745 1349.2922623972465 377.67755193847756 1334.1128944837255 416.47912773151774 1294.262381605397 436.385266641352 1254.4118687270682 456.29140555118624 1217.7240527348367 462.14857637215795 1181.0362367426055 468.00574719312965 1142.6967558400956 465.37178681781484 1104.357274937586 462.73782644249997 1081.0629856050168 426.900248195307 1057.7686962724479 391.0626699481139 1079.7716246720074 362.0418375214947 1101.7745530715667 333.02100509487553 1143.0934076923763 319.87349110469484 1184.4122623131861 306.7259771145142 1222.8935864708237 300.40284855872324 1261.374910628461 294.0797200029323 1295.8397723859848 291.03598787118824 1330.3046341435086 287.99225573944426 1346.90291823769 336.01136572964185 1363.5012023318716 384.0304757198394 1321.436956381957 396.8000894810083 1279.3727104320426 409.56970324217724 1231.461127682065 412.38515679473664 1183.5495449320872 415.20061034729605 1142.526831771458 417.384646226672 1101.5041186108292 419.56868210604785 1066.0019097026598 420.69031146934634 1030.49970079449 421.81194083264484 1000.2443043637297 389.1957087733925 969.9889079329693 356.5794767141401 997.5474518826079 324.54154372247365 1025.1059958322467 292.5036107308071 1070.7774218738023 283.5818015421048 1116.4488479153576 274.6599923534025 1157.8913008651928 273.3148526823785 1199.3337538150279 271.96971301135443 1238.7318619881034 276.5712494211905 1278.1299701611788 281.1727858310266 1304.6117402865943 303.76399124175043 1331.0935104120097 326.35519665247426 1328.205566362385 365.7465969770915 1325.3176223127602 405.13799730170877 1307.6289034234387 433.9075093432975 1289.940184534117 462.6770213848862 1288.9034221070683 464.58599204563575 1287.86665968002 466.49496270638537 1283.3898443413013 471.3501673173454 1278.9130290025828 476.20537192830545 1273.4043472436183 479.8480787062009 1267.8956654846536 483.4907854840963 1261.6752821480986 485.709280139844 1255.4548988115434 487.9277747955917 1248.8843428691816 488.5931183155641 1242.31378692682 489.2584618355364 1235.774939398738 488.3319844230916 1229.236091870656 487.4055070106469 1223.1089908824124 484.9410555765266 1216.981889894169 482.4766041424063 1211.622642843081 478.61741271975336 1206.263395791993 474.75822129710036 1201.9834823684728 469.7285862727227 1197.7035689449528 464.698951248345 1194.7517379182668 458.79119524617573 1191.7999068915806 452.88343924400647 1190.3477188196905 446.4409213204665 1188.8955307478004 439.99840339692656 1189.0273868696754 433.39556299643243 1189.1592429915504 426.79272259593824 1190.8674798231918 420.41331711279975 1192.575716654833 414.03391162966125 1195.7610513913248 408.24871241029354 1198.9463861278166 402.4635131909258 1228.1903818095025 384.62960816822726 1257.4343774911883 366.79570314552876 1290.5571867749538 356.0980374654538 1323.6799960587193 345.40037178537875 1362.8978285081891 368.8163634492829 1402.115660957659 392.232355113187 1387.932182641538 425.26895894834706 1373.7487043254168 458.3055627835071 1339.370585165628 470.8527915772131 1304.992466005839 483.40002037091915 1272.2046109991927 488.2242201714014 1239.4167559925463 493.04841997188356 1203.0269453030141 484.5846712446415 1166.637134613482 476.12092251739944 1152.803391069907 441.08254399737723 1138.9696475263322 406.04416547735497 1156.8601130405018 371.4134708916024 1174.7505785546712 336.78277630584984 1199.2774518522428 314.8401522833652 1223.8043251498143 292.8975282608807 1212.5112881620485 259.85162776187593 1201.2182511742828 226.80572726287122 1224.442598281786 192.83669323165 1247.6669453892894 158.8676592004288 1279.8776006623816 161.53652061834507 1312.0882559354739 164.20538203626134 1341.732804165843 186.37677977553687 1371.3773523962118 208.54817751481244 1375.7026420950042 249.02359484284068 1380.0279317937968 289.4990121708689 1348.143205378367 313.00163344686376 1316.2584789629373 336.5042547228586 1281.7816933565396 340.3417849427196 1247.3049077501419 344.17931516258056 1212.4740224936518 319.28908991783857 1177.6431372371617 294.39886467309657 1186.5925492326955 257.9349445471986 1195.5419612282296 221.47102442130063 1228.2887113009892 204.1740776471766 1261.035461373749 186.87713087305258 1300.2492936146405 187.9167016462074 1339.463125855532 188.9562724193622 1357.702764186337 230.49170427168264 1375.9424025171418 272.02713612400305 1353.3047907687283 298.3654019763825 1330.6671790203147 324.703667828762 1299.3632664283127 338.7575762901546 1268.0593538363107 352.81148475154725 1230.3140003957349 360.33470485863995 1192.568646955159 367.8579249657327 1158.7208842473128 369.91246925159214 1124.8731215394666 371.9670135374516 1088.9487566506245 371.9878713706046 1053.0243917617827 372.0087292037575 1044.4557287169687 369.5194956718517 1035.8870656721547 367.0302621399459 1028.5618137469758 361.9352690894512 1021.236561821797 356.8402760389565 1015.9216768264981 349.6729705872074 1010.6067918311993 342.5056651354582 1007.8587436277818 334.0164660552375 1005.1106954243643 325.52726697501686 1005.21720538514 316.6049956509547 1005.3237153459158 307.68272432689264 1008.2736318498759 299.26154492186924 1011.2235483538359 290.84036551684585 1016.7080143643132 283.80197773754264 1022.1924803747905 276.7635899582394 1029.6372708527297 271.84491486310327 1037.082061330669 266.92623976796716 1045.707704747796 264.64226393786305 1054.3333481649229 262.358288107759 1063.2367373785157 262.9481444150099 1072.1401265921086 263.5380007222608 1080.3890744012378 266.93993105579057 1088.638022210367 270.3418613893203 1095.3688616019056 276.19968274518595 1102.0997009934442 282.0575041010516 1106.6077113063295 289.7579010369794 1111.1157216192148 297.45829797290713 1112.9289129836884 306.195036896998 1114.742104348162 314.9317758210888 1113.6706351497273 323.79011786171543 1112.599165951293 332.648459902342 1108.7552192978665 340.70093430947543 1104.9112726444403 348.7534087166088 1098.6973107653394 355.15691929417545 1092.4833488862387 361.5604298717421 1084.5499752305318 365.6445273719081 1076.6166015748252 369.72862487207414 1067.794442458472 371.0657032084751 1058.9722833421188 372.40278154487606 1050.1850211534254 370.8528482627364 1041.397758964732 369.3029149805967 1033.5654223744664 365.0282485036991 1025.7330857842007 360.7535820268015 1019.6757225008998 354.2017410636795 1013.618359217599 347.64990010055743 1009.9701767760131 339.5068641295679 1006.3219943344271 331.3638281585783 1005.4649583992168 322.48217519543664 1004.6079224640065 313.6005222322949 1006.6317649238238 304.91016368677066 1008.6556073836412 296.2198051412464 1013.3484313987007 288.6306238470879 1018.0412554137602 281.0414425529294 1024.9117210709 275.34802779498426 1031.78218672804 269.6546130370391 1040.1109544593307 266.45306684337976 1048.4397221906215 263.2515206497204 1057.354767816016 262.87704575194914 1066.2698134414104 262.5025708541778 1066.2616004794727 262.5015774475444 1066.253387517535 262.500584040911 1092.997229145601 262.3298576888691 1119.741070773667 262.1591313368271 1158.0803470663514 258.62164819004613 1196.4196233590355 255.08416504326516 1233.1006945158617 242.00663976368315 1269.781765672688 228.92911448410118 1275.4702266955742 261.56144332435497 1281.1586877184604 294.19377216460873 1267.6504431830517 262.3788133014709 1254.1421986476428 230.56385443833318 1286.0562247053463 239.350486851124 1317.97025076305 248.13711926391483 1325.2906000818953 280.5540369638835 1332.6109494007405 312.9709546638521 1312.6808138695806 347.15264628918595 1292.7506783384206 381.3343379145198 1260.531087845821 381.92266639576394 1228.3114973532215 382.51099487700805 1265.5682349138929 382.55682456061703 1302.8249724745644 382.602654244226 1328.2311950952967 417.4624429979766 1353.637417716029 452.32223175172726 1320.753639261955 459.4063740621482 1287.869860807881 466.49051637256906 1283.3935310120069 471.34616864078623 1278.9172012161325 476.20182090900335 1273.4088837553886 479.8450785368602 1267.9005662946447 483.4883361647171 1261.6804048386566 485.70745284770493 1255.4602433826688 487.92656953069275 1248.8897540075118 488.5925701029315 1242.3192646323546 489.25857067517035 1235.7803244892257 488.3327471521097 1229.241384346097 487.406923629049 1223.114036943346 484.94308491734876 1216.9866895405949 482.47924620564856 1211.6270565971613 478.6205907269958 1206.267423653728 474.761935248343 1201.9870072881058 469.7327282404551 1197.7065909224839 464.7035212325672 1194.7541691349577 458.79606044303887 1191.8017473474315 452.8885996535106 1190.348915031011 446.44622698099016 1188.8960827145906 440.0038543084697 1189.0272785517673 433.4010007553776 1189.158474388944 426.79814720228546 1190.866073271497 420.41857092736115 1192.57367215405 414.0389946524368 1195.758428354694 408.253476928522 1198.9431845553381 402.4679592046071 1199.1698866498464 389.63813781869544 1199.3965887443549 376.80831643278384 1165.1185880857497 377.98475532484986 1130.8405874271446 379.16119421691593 1096.704627145493 382.9953598468036 1062.5686668638416 386.8295254766912 1068.6539593234345 351.9126517363128 1074.7392517830274 316.9957779959344 1110.9091218272843 314.86723398751866 1147.0789918715413 312.7386899791029 1193.3379381911986 308.95943834377954 1239.5968845108562 305.18018670845623 1274.9475456591588 306.0091673212745 1310.2982068074614 306.8381479340927 1310.3797708082209 351.6263887037258 1310.4613348089804 396.4146294733589 1271.948494957481 401.7100844534181 1233.4356551059816 407.00553943347734 1194.7778941942001 417.754089483386 1156.1201332824187 428.5026395332947 1155.549305706998 394.5302536671269 1154.9784781315773 360.5578678009591 1188.9865938298071 348.4813546089115 1222.994709528037 336.40484141686386 1255.3380582530785 346.35572453880195 1287.6814069781199 356.30660766074 1253.811814612511 364.88992642869175 1219.942222246902 373.4732451966436 1187.6475631929582 382.6118864074773 1155.3529041390143 391.7505276183111 1167.6674606040783 353.6870209177194 1179.9820170691426 315.6235142171277 1147.1271440450544 312.0036533837601 1114.2722710209662 308.38379255039246 1072.8800734104943 313.00559450845003 1031.4878758000223 317.6273964665076 986.7746347855814 330.3426815115953 942.0613937711406 343.057966556683 917.463840335299 367.7964468568663 892.8662868994572 392.5349271570495 934.6878042785568 392.5110662674146 976.5093216576563 392.48720537777973 1022.0308732716081 385.0618132542918 1067.55242488556 377.6364211308038 1101.9084808319362 370.8408728855354 1136.2645367783123 364.0453246402671 1100.0013666264585 376.4800129603512 1063.7381964746048 388.9147012804353 1031.6083781124794 395.51788270781674 999.4785597503541 402.12106413519825 1032.4386723440984 381.31757372249444 1065.3987849378427 360.51408330979064 1029.6388147711534 360.37181957528395 993.878844604464 360.22955584077727 953.1145034347969 366.1076941585576 912.3501622651297 371.98583247633786 872.90270104734 389.37280077539515 833.4552398295502 406.75976907445244 804.9454169137159 389.07211255213963 776.4355939978816 371.38445602982677 742.1047205547895 374.4895082869928 707.7738471116975 377.59456054415887 674.169021171017 387.4680891948502 640.5641952303366 397.3416178455416 609.2723510908893 414.091125673727 577.980506951442 430.8406335019124 561.0959432825088 403.1931186463106 544.2113796135756 375.54560379070875 576.1960121287417 368.8140215264551 608.1806446439078 362.08243926220143 645.3949544425593 351.93137436129 682.6092642412107 341.7803094603786 722.7748772796203 329.1109662051096 762.9404903180301 316.4416229498406 801.1603774253862 312.4590153542672 839.3802645327422 308.4764077586937 856.3670852321972 337.6321499919143 873.3539059316521 366.7878922251348 839.87254536936 375.7987348893721 806.3911848070678 384.8095775536094 766.2765607058479 395.58790614995894 726.161936604628 406.36623474630846 699.9510149854366 378.2275243294761 673.7400933662452 350.0888139126438 705.235512811995 343.40333856609465 736.7309322577449 336.7178632195455 741.9399885294126 370.4678770824417 747.1490448010803 404.2178909453379 713.3130735265603 401.41557236435096 679.4771022520403 398.613253783364 642.8379586473851 403.80949993357353 606.19881504273 409.00574608378315 566.4144287556481 420.74424647646975 526.6300424685663 432.48274686915636 522.766102977693 394.976684654952 518.9021634868196 357.47062244074766 553.0994293871643 366.40320596070876 587.2966952875089 375.3357894806699 548.1899964757466 380.9652877822739 509.08329766398435 386.5947860838779 473.6262036850898 397.1926756087412 438.1691097061953 407.7905651336045 408.8411682932134 421.510800644077 379.5132268802315 435.2310361545495 365.4156082465282 401.0452450697938 351.31798961282493 366.8594539850381 386.17205777885715 354.0988168190359 421.0261259448894 341.3381796530337 454.4547748383959 325.78276420770544 487.8834237319024 310.2273487623772 518.2842588340253 328.95319699084644 548.6850939361482 347.6790452193157 514.9464232164105 348.42487513228673 481.20775249667275 349.1707050452578 442.1598202172868 359.3705648116555 403.11188793790075 369.5704245780532 367.7032827958072 386.5501353034323 332.2946776537136 403.52984602881145 338.1792734373688 368.1757113461191 344.06386922102394 332.82157666342675 379.2104262984721 327.36211425703027 414.35698337592027 321.90265185063384 419.0025860907043 356.2868454934347 423.6481888054884 390.67103913623566 391.0092662342429 391.602799214474 358.3703436629973 392.53455929271223 332.5381857326795 370.20558638279965 306.70602780236175 347.87661347288713 337.8125241067787 337.8896844586326 368.9190204111957 327.902755444378 402.23847210655214 313.80822244123704 435.5579238019086 299.713689438096 431.87000166933194 334.35217231169383 428.18207953675534 368.9906551852916 393.7281565111064 375.2858034888189 359.2742334854575 381.5809517923462 340.08039494452305 349.62879833810746 320.88655640358854 317.67664488386873 299.6068404284772 344.96571062304156 278.32712445336585 372.2547763622144 243.4111571610764 377.94002796945364 208.49518986878695 383.6252795766929 175.61604798901524 404.57684166154866 142.73690610924353 425.52840374640436 129.55471598728764 395.9743474841283 116.37252586533171 366.4202912218523 152.35513245715555 359.32280464356387 188.33773904897936 352.2253180652754 153.27394983621846 353.85266146164764 118.21016062345755 355.48000485801987 99.9753066310731 327.73355515202104 81.74045263868862 299.98710544602216 110.5990093811473 281.4901356888057 139.45756612360597 262.9931659315892 174.39525179682812 254.27594237177453 209.33293747005027 245.55871881195984 211.37962870075793 280.4902830251917 213.4263199314656 315.4218472384235 250.26682998313515 316.6615474582669 287.1073400348047 317.90124767811034 330.8087993070892 311.2387750812269 374.51025857937367 304.57630248434344 419.3927425182968 293.3205040944486 464.27522645721996 282.0647057045538 501.91078985733316 269.38517414780415 539.5463532574463 256.7056425910545 528.1748221488797 290.87627979347235 516.8032910403132 325.0469169958901 486.466105795776 335.7757320308062 456.1289205512388 346.50454706572225 490.9946019552898 346.4044722154159 525.8602833593408 346.3043973651096 563.1648613868017 341.0662307359514 600.4694394142625 335.8280641067933 643.7217400913705 339.51447836865157 686.9740407684786 343.20089263050977 717.4864561335598 359.5168778763037 747.998871498641 375.8328631220976 733.4189642503817 397.21421157183363 718.8390570021223 418.5955600215697 718.8316650390625 418.602294921875 Z" fill="#fca311"></path><path d="M 174.183552020525 368.9677027276121 Q 174.183552020525 368.9677027276121 194.8937523877389 353.1213597369583 215.60395275495281 337.27501674630446 244.0452694825072 355.07579892854 272.4865862100616 372.87658111077553 304.49837805405 382.12561900759454 336.5101698980385 391.3746569044136 369.9083199529108 388.77877332681487 403.30647000778305 386.1828897492161 434.3396257164413 373.61460048240735 465.3727814250995 361.0463112155986 496.7074440801533 346.749643620726 528.0421067352071 332.45297602585333 561.662497549566 321.2589345194029 595.2828883639248 310.06489301295244 628.7511660001855 307.52235204368856 662.2194436364462 304.9798110744247 693.1895450284271 316.8314954962258 724.159646420408 328.6831799180269 749.7594526878465 352.12419905688716 775.3592589552852 375.56521819574743 792.6171215496911 405.31468369958924 809.8749841440971 435.06414920343104 793.3045033925421 464.37826525254 776.734022640987 493.69238130164894 743.6682752861445 501.558754821791 710.6025279313022 509.42512834193303 677.9161827153531 509.2574384264121 645.229837499404 509.0897485108911 611.0823896815407 500.7010725419552 576.9349418636773 492.3123965730193 550.3203800112722 472.73150676826515 523.7058181588669 453.15061696351097 506.0366374997847 424.2498765821333 488.3674568407025 395.34913620075565 502.0938192917365 365.78830255993347 515.8201817427705 336.2274689191113 549.7214869332697 337.88873487309314 583.6227921237689 339.550000827075 617.2657727103672 355.8986077104283 650.9087532969653 372.24721459378156 682.1887652022593 384.3426959522004 713.4687771075534 396.4381773106192 746.4122499441884 392.5498733239358 779.3557227808234 388.6615693372524 795.1488647625225 383.42762431472414 810.9420067442217 378.1936792921959 819.9456854802232 376.01807836139295 828.9493642162248 373.84247743059 838.1763932162476 374.65574615861203 847.4034222162702 375.4690148866341 855.8877291083124 379.18600382297524 864.3720360003547 382.90299275931636 871.2253116131802 389.13453218115177 878.0785872260058 395.3660716029872 882.5832917938626 403.4597176878841 887.0879963617195 411.553363772781 888.7724861272267 420.66170963913567 890.4569758927338 429.7700555054903 889.1448843327804 438.9394549367255 887.832792772827 448.10885436796076 883.6614962200988 456.3792688231399 879.4901996673707 464.64968327831906 872.8964339720537 471.1551981808074 866.3026682767367 477.6607130832958 857.9768024477155 481.7201993055137 849.6509366186945 485.77968552773166 840.4646910060831 486.9681137906126 831.2784453934715 488.15654205349364 822.1936223378434 486.34948360419946 813.1087992822153 484.54242515490523 805.0765821556552 479.92907949009407 797.0443650290949 475.3157338252829 790.905729085053 468.3791194538655 784.7670931410112 461.44250508244806 781.1647551832712 452.9088873602001 777.5624172255312 444.37526963795216 776.8735429891935 435.1381205930494 776.1846687528557 425.9009715481467 778.4813835523098 416.9274231239609 780.778098351764 407.95387469977516 785.8199355412332 400.18345978510547 790.8617727307026 392.4130448704357 798.1208506255339 386.65932795803826 805.3799285203653 380.90561104564074 814.0962197487593 377.77100781507727 822.8125109771532 374.6364045845138 832.0734175466198 374.4491088214792 841.3343241160862 374.2618130584446 850.17022666416 377.0414346787699 859.0061292122339 379.82105629909523 866.49190640968 385.27656818538355 873.9776836071262 390.73208007167193 879.3295726053188 398.2922886893136 884.6814616035114 405.85249730695523 887.3391182115781 414.72584681798185 889.9967748196448 423.5991963290085 889.6819416891678 432.85664469727885 889.367108558691 442.11409306554924 886.1127488015393 450.7863830031764 882.8583890443876 459.4586729408036 877.0052349862025 466.6378134020557 871.1520809280173 473.8169538633079 863.3129593437732 478.75128694678295 855.4738377595291 483.685620030258 855.4817496551437 483.68228014290685 855.4896615507583 483.6789402555557 839.1714439141141 489.3209791098064 822.8532262774698 494.9630179640571 789.3475704076275 503.0041441225898 755.841914537785 511.04527028112255 721.0294071256158 509.1133550781845 686.2168997134464 507.18143987524644 655.455500854484 496.2793236844047 624.6941019955216 485.37720749356293 597.4469799567413 460.4766356860483 570.199857917961 435.5760638785338 582.9958022737602 399.5042862652651 595.7917466295594 363.4325086519964 625.9173976375127 379.7751049675439 656.043048645466 396.1177012830914 690.1197832765528 394.50217127208657 724.1965179076395 392.8866412610818 698.2518865816816 413.45273496420515 672.3072552557236 434.0188286673285 639.0328199233006 427.61319896875193 605.7583845908778 421.2075692701753 574.7042591674206 433.4843414469766 543.6501337439634 445.7611136237779 512.1273242865686 459.5697364773986 480.604514829174 473.3783593310192 446.9615078335063 484.51904624982524 413.3185008378386 495.6597331686313 380.26424760327416 498.09095331291167 347.2099943687098 500.522173457192 310.6428344016784 493.61100564351796 274.075674434647 486.69983782984383 243.12251375071008 473.12079022198 212.1693530667732 459.5417426141162 181.89896999996537 437.77803465631797 151.62858693315755 416.01432669851977 162.89976355006627 392.4987758526413 174.170940166975 368.9832250067629 174.17724609375 368.9754638671875 Z" fill="#fca311"></path><path d="M 108.42005553610197 247.39960392981425 Q 108.42005553610197 247.39960392981425 101.98090830020017 271.47447665811944 95.54176106429837 295.5493493864247 68.29447150493671 289.81818419915015 41.04718194557505 284.0870190118756 34.64962765102421 278.84784185020226 28.252073356473375 273.60866468852896 23.862360519194574 266.60094755030514 19.472647681915774 259.59323041208137 17.550380394743758 251.55068313153689 15.628113107571743 243.5081358509924 16.3745532629027 235.27281525142647 17.12099341823366 227.03749465186053 20.45798853476338 219.47164097396126 23.7949836512931 211.90578729606196 29.37314945943976 205.80154741709674 34.951315267586416 199.69730753813155 42.186616334744286 195.69379698479094 49.421917401902164 191.69028643145035 57.556815796405836 190.20667381549325 65.69171419090951 188.72306119953615 73.8744839034498 189.91468115348894 82.0572536159901 191.10630110744174 89.43115649762267 194.84839070756846 96.80505937925523 198.5904803076952 102.59804585175178 204.49124178504687 108.39103232424833 210.39200326239853 111.99657517473858 217.83362533264665 115.60211802522882 225.2752474028948 116.64271596549555 233.47859027088697 117.68331390576229 241.68193313887915 116.05001605676841 249.7881046408644 114.41671820777452 257.8942761428496 110.28053128545844 265.0545579827486 106.14434436314234 272.21483982264755 99.93832823011789 277.679548601692 93.73231209709343 283.1442573807364 86.10623828071738 286.34123664721733 78.48016446434133 289.5382159136983 70.23248490627628 290.13274109449463 61.984805348211225 290.72726627529096 53.97905427536249 288.65709042703395 45.97330320251376 286.5869145787769 39.047684865521695 282.0687856592523 32.12206652852963 277.55065673972774 27.001694995462948 271.05762403948006 21.881323462396267 264.5645913392324 19.10230298441389 256.7764770959717 16.32328250643151 248.98836285271102 16.176577261168337 240.7205846835692 16.029872015905163 232.4528065144274 18.53084208126668 224.57100297619513 21.031812146628198 216.68919943796286 25.91860529657908 210.01859744168706 30.805398446529964 203.34799544541127 37.566366148282206 198.58700878097 44.32733385003445 193.82602211652872 52.254601000492514 191.47312734446731 60.18186815095058 189.1202325724059 68.44544778686618 189.42177839646314 76.70902742278179 189.7233242205204 84.44372057490139 192.6477387133171 92.178413727021 195.57215320611382 92.17177511203585 195.5683183637015 92.16513649705068 195.5644835212892 102.01387536514935 196.61072275285704 111.86261423324801 197.65696198442492 110.1429788724988 222.5184190175397 108.4233435117496 247.3798760506545 108.42169952392578 247.38973999023438 Z" fill="#fca311"></path><path d="M 46.396108098307984 388.8201278911291 Q 46.396108098307984 388.8201278911291 67.34687248649439 375.4478949490076 88.29763687468079 362.07566200688615 116.29419464565274 345.2421689386422 144.29075241662468 328.40867587039827 176.38494555355595 316.1141530514823 208.4791386904872 303.81963023256634 242.94163775169426 298.6354960680359 277.40413681290136 293.4513619035054 312.7642144084024 293.04311574346855 348.12429200390346 292.6348695834316 380.9160248212048 291.6759326407183 413.7077576385061 290.71699569800495 443.2382600200865 288.53946238011645 472.7687624016669 286.361929062228 481.84486767686803 286.7724490506825 490.9209729520691 287.182969039137 499.39085923327184 290.4701015297659 507.86074551447456 293.7572340203948 514.8376134722041 299.5768153737106 521.8144814299337 305.3963967270264 526.5678511473016 313.1391152391166 531.3212208646694 320.88183375120684 533.3534132774994 329.7370247499765 535.3856056903293 338.5922157487461 534.4838497165513 347.6327383990806 533.5820937427734 356.67326104941503 529.8408034708826 364.9525702433581 526.0995131989919 373.2318794373011 519.9104027080598 379.88312931672147 513.7212922171278 386.5343791961419 505.7323630093218 390.8611821429049 497.7434338015157 395.18798508966796 488.7911288737653 396.73732369308243 479.8388239460149 398.28666229649696 470.86045198743466 396.89632039579976 461.88208002885443 395.50597849510257 453.8176789535677 391.32152525431127 445.753277878281 387.13707201352 439.44719260766544 380.5966207915339 433.1411073370499 374.05616956954776 429.25358666358386 365.84450733582014 425.36606599011776 357.6328451020926 424.30413435451885 348.6097350601631 423.2422027189199 339.5866250182336 425.11704464375805 330.69678917136196 426.99188656859627 321.8069533244904 431.60720560943076 313.98115983253285 436.22252465026526 306.15536634057537 443.0950956851948 300.21297784794876 449.9676667201243 294.2705893553221 458.3779297476093 290.8337755058426 466.7881927750942 287.39696165636303 475.85559103606295 286.82555776730186 484.92298929703173 286.2541538782407 493.6981638000003 288.60798608761854 502.4733383029689 290.96181829699646 510.0375259610553 295.99443975114013 517.6017136191417 301.0270612052838 523.1629419877927 308.2115551094614 528.7241703564437 315.3960490136391 531.7001773574398 323.980196959561 534.6761843584359 332.564344905483 534.7553812731833 341.64938433721625 534.8345781879307 350.73442376894957 532.0086730785494 359.36914865977417 529.182767969168 368.00387355059877 523.7476338465767 375.28422592509946 518.3124997239853 382.5645782996001 510.8371965655553 387.72830334234015 503.3618934071253 392.8920283850802 494.6290874268327 395.3984827209938 485.8962814465401 397.90493705690733 485.9046471722024 397.9039524929716 485.91301289786463 397.90296792903587 475.4121004464621 398.9987794276341 464.9111879950596 400.09459092623223 429.52323795019277 401.8281604336836 394.13528790532587 403.5617299411349 355.9324750973112 404.0116971295322 317.7296622892965 404.46166431792955 283.30054931805023 406.15496366444927 248.87143634680393 407.84826301096905 217.8310184899773 417.8659733844184 186.7906006331507 427.88368375786774 156.91546217820846 443.22297110379134 127.04032372326621 458.5622584497149 94.08469227929587 461.8351844604663 61.12906083532552 465.10811047121774 35.36027851436472 443.68541354796173 9.59149619340392 422.26271662470566 27.98585856781164 405.54749675936637 46.38022094221936 388.83227689402713 46.38816452026367 388.8262023925781 Z" fill="#fca311"></path><path d="M 1208.8976717777825 460.7751521234367 Q 1208.8976717777825 460.7751521234367 1214.30071963703 436.3367473443582 1219.7037674962771 411.89834256527956 1253.026723926725 405.2757933506848 1286.3496803571732 398.6532441360901 1299.1220177623059 366.873027878845 1311.8943551674386 335.0928116215999 1318.921096479608 337.3763671455522 1325.9478377917774 339.6599226695045 1320.2089992736583 332.5432756148391 1314.4701607555394 325.42662856017364 1311.3041772518554 316.85006273858005 1308.1381937481717 308.2734969169865 1307.8765445674971 299.13498103397916 1307.6148953868228 289.9964651509718 1310.2849752674429 281.2528042318355 1312.9550551480631 272.50914331269917 1318.2773060216446 265.0758009637697 1323.599556895226 257.6424586148403 1331.0167376903667 252.29770774226247 1338.4339184855073 246.95295686968467 1347.1694484150105 244.25639430069458 1355.9049783445137 241.5598317317045 1365.0442451188046 241.7937882790988 1374.1835118930953 242.0277448264931 1382.7696318683734 245.16772517800104 1391.3557518436514 248.307705529509 1398.4897559919896 254.02495291345343 1405.6237601403277 259.74220029739786 1410.5587163442008 267.43811740347303 1415.4936725480738 275.13403450954826 1417.7128895902342 284.0028567852233 1419.9321066323946 292.8716790608983 1419.2032319027119 301.98483847276833 1418.4743571730291 311.09799788463835 1414.8737040481053 319.5013442366401 1411.2730509231815 327.9046905886418 1405.1776087356761 334.7183912994527 1399.0821665481706 341.53209201026357 1391.130129704156 346.0427508168194 1383.1780928601415 350.5534096233752 1374.2020417163199 352.2887593579313 1365.2259905724982 354.0241090924874 1356.1657200530751 352.8024581797479 1347.105449533652 351.58080726700837 1338.9095723536902 347.53006288002166 1330.7136951737282 343.4793184930349 1324.2403218374711 337.02359463841105 1317.7669485012138 330.56787078378727 1313.693842905772 322.38308345325106 1309.6207373103302 314.1982961227149 1308.3743546867422 305.1413947103475 1307.127972063154 296.08449329798015 1308.8388090011222 287.10373777244615 1310.5496459390904 278.1229822469122 1315.0385773595926 270.1586600824244 1319.5275087800949 262.1943379179365 1326.3245423784415 256.0803157474934 1333.1215759767883 249.96629357705035 1341.5150605409904 246.34271113584262 1349.9085451051922 242.7191286946349 1359.0196805857126 241.96537602078973 1368.130816066233 241.2116233469446 1377.0056641731549 243.40661854438508 1385.880512280077 245.60161374182553 1393.5898740738737 250.51554023395713 1401.2992358676704 255.42946672608872 1401.2929185834273 255.4238153711907 1401.2866012991842 255.4181640162927 1413.4861975249883 290.5489716826667 1425.685793750792 325.6797793490407 1419.4730765477484 358.3012866529824 1413.260359344705 390.9227939569241 1405.9301999444574 424.5389292738787 1398.6000405442096 458.1550645908332 1370.007252360193 476.88300499970217 1341.4144641761761 495.61094540857107 1309.7529154090248 502.2500062315204 1278.0913666418737 508.88906705446976 1243.596500988814 509.8703968973051 1209.101635335754 510.8517267401404 1208.9985882242981 485.8233825231956 1208.8955411128425 460.7950383062508 1208.8966064453125 460.78509521484375 Z" fill="#fca311"></path><path d="M 774.6557681274913 217.60572122048893 Q 774.6557681274913 217.60572122048893 762.0083705615518 195.87425398376305 749.3609729956122 174.14278674703718 777.4548983750551 158.40240232736014 805.548823754498 142.6620179076831 837.6839984714188 134.8274313469413 869.8191731883396 126.99284478619953 903.630012405379 127.04543669283805 937.4408516224184 127.09802859947658 967.365266949545 141.27863474571257 997.2896822766714 155.45924089194853 1003.85757710652 161.51918903503883 1010.4254719363686 167.57913717812914 1014.7145264829246 175.41904949202413 1019.0035810294806 183.2589618059191 1020.5647301495193 192.0579974018181 1022.1258792695579 200.85703299771714 1020.7956702381077 209.69393052600975 1019.4654612066576 218.53082805430233 1015.3831672604525 226.48036201106186 1011.3008733142475 234.4298959678214 1004.8939117070761 240.65974804930198 998.4869500999048 246.88960013078258 990.4261314033117 250.74750317953198 982.3653127067186 254.60540622828137 973.4946067660865 255.687436776708 964.6239008254543 256.76946732513466 955.8720728944062 254.96233648918994 947.1202449633581 253.15520565324522 939.4036137365331 248.64812050848877 931.6869825097081 244.14103536373233 925.8134813135475 237.4058889145751 919.9399801173869 230.67074246541785 916.5245660775824 222.41270632299256 913.109152037778 214.15467018056728 912.509419905879 205.2383629088957 911.9096877739801 196.32205563722414 914.1884296625103 187.68101696132686 916.4671715510406 179.03997828542956 921.3858025827415 171.57892723568563 926.3044336144424 164.11787618594172 933.3479718219022 158.6179867767856 940.391510029362 153.1180973676295 948.8224951029465 150.15520947202958 957.2534801765308 147.1923215764297 966.1891857534715 147.07665033918175 975.1248913304122 146.96097910193384 983.6297466780063 149.704635332112 992.1346020256004 152.44829156229017 999.3181465438911 157.76401372833982 1006.5016910621816 163.0797358943895 1011.6118057438322 170.41096648231093 1016.7219204254827 177.74219707023235 1019.2235749143852 186.3213543022132 1021.7252294032875 194.90051153419404 1021.356499814081 203.8293553833684 1020.9877702248746 212.75819923254278 1017.7872626428842 221.1018773909162 1014.5867550608939 229.44555554928962 1008.8895634748062 236.3304827111633 1003.1923718887184 243.21540987303698 995.5949937615092 247.92073234711842 987.9976156342998 252.6260548211999 979.2954984614007 254.65912410236834 970.5933812885016 256.6921933835368 961.6976390350512 255.84014658137573 952.8018967816009 254.98809977921468 944.6439160097834 251.34014641882885 936.4859352379658 247.69219305844302 936.49285270943 247.69675333950508 936.4997701808944 247.70131362056713 905.2653512031801 241.2176439369826 874.0309322254658 234.73397425339806 842.1096500861181 243.97631485303395 810.1883679467705 253.21865545266985 792.4281651440147 235.42011457702796 774.6679623412587 217.62157370138607 774.661865234375 217.6136474609375 Z" fill="#fca311"></path><path d="M 940.90692397491 165.5142400634501 Q 940.90692397491 165.5142400634501 926.9805546965133 186.17831447277882 913.0541854181166 206.84238888210757 880.4202725797759 209.67170970670236 847.7863597414353 212.50103053129718 817.4122588226271 226.73252636941987 787.0381579038191 240.9640222075426 757.8562928905287 255.35062056129783 728.6744278772385 269.73721891505306 694.6672338600945 266.7011233518019 660.6600398429505 263.6650277885508 654.3673968875347 227.47415050260707 648.0747539321189 191.28327321666336 674.8847370220064 172.4269692663134 701.6947201118941 153.57066531596342 733.6768028459594 141.83326177926295 765.6588855800248 130.0958582425625 798.0785333992892 124.49317899896175 830.4981812185534 118.89049975536098 862.8601233253945 118.00382802174967 895.2220654322356 117.11715628813836 927.5582061770396 113.28428896947045 959.8943469218435 109.45142165080253 992.555345934458 110.02601981510209 1025.2163449470727 110.60061797940165 1058.7661308589854 121.40119574287371 1092.315916770898 132.20177350634577 1121.9576297553513 145.68362489344278 1151.5993427398043 159.1654762805398 1162.5071956717218 165.51177442437395 1173.4150486036392 171.85807256820812 1180.074103998014 178.5266440550583 1186.7331593923884 185.1952155419085 1190.9142619044344 193.6409982886019 1195.0953644164804 202.0867810352953 1196.3607515094827 211.425499358783 1197.626138602485 220.76421768227067 1195.8433239137767 230.01810530890126 1194.060509225068 239.27199293553184 1189.4161539231739 247.472165388008 1184.7717986212797 255.67233784048415 1177.752167932299 261.9602348983964 1170.7325372433181 268.24813195630855 1162.0725883533896 271.96540913784975 1153.4126394634611 275.68268631939094 1144.0190713073648 276.4401437223879 1134.6255031512685 277.19760112538484 1125.4818247946089 274.91593275979443 1116.3381464379493 272.634264394204 1108.4017034183653 267.55236154020554 1100.4652603987813 262.470458686207 1094.567000395441 255.12039791410615 1088.6687403921005 247.7703371420053 1085.4262127843426 238.9216717548686 1082.183685176585 230.07300636773195 1081.9363834608864 220.6521939674135 1081.6890817451879 211.23138156709507 1084.4628984764634 202.22478369876114 1087.2367152077388 193.2181858304272 1092.7412310420073 185.56879566840325 1098.245746876276 177.9194055063793 1105.9046375526386 172.4281162198722 1113.5635282290011 166.9368269333651 1122.5749058718918 164.17857796023168 1131.5862835147825 161.4203289870983 1141.0066545062177 161.68390972293264 1150.4270254976532 161.947490458767 1159.2700745080938 165.20530393094873 1168.1131235185342 168.46311740313047 1175.4529809822484 174.37406968114288 1182.7928384459626 180.2850219591553 1187.8610193489653 188.23023477915066 1192.9292002519683 196.17544759914603 1195.1950647158455 205.3230550815383 1197.4609291797226 214.47066256393057 1196.6872405969762 223.86290779057947 1195.91355201423 233.2551530172284 1192.1813157837073 241.9086654335918 1188.4490795531847 250.56217784995522 1182.1490617934364 257.5709324217345 1175.849044033688 264.57968699351375 1167.6408582672027 269.20986526691195 1159.4326725007174 273.8400435403102 1150.175717943997 275.6068646278544 1140.9187633872762 277.37368571539855 1131.5822456260075 276.0921629828272 1122.245727864739 274.81064025025586 1113.8071827731285 270.6149494659584 1105.368637681518 266.41925868166095 1105.3757297705297 266.4243621625184 1105.3828218595413 266.42946564337575 1088.1115227623964 258.2533748115433 1070.8402236652512 250.07728397971087 1039.456627596012 237.46798093484972 1008.0730315267725 224.85867788998857 974.8908265445475 225.98089680038794 941.7086215623226 227.10311571078728 906.8104943701608 230.05998275795696 871.9123671779988 233.01684980512664 839.4925006899181 235.3039955666685 807.0726342018373 237.59114132821034 775.8272820904901 229.3764647537215 744.581929979143 221.16178817923267 727.3704055801022 188.50674405613148 710.1588811810616 155.85169993303032 740.7757071027984 141.8765004847045 771.3925330245353 127.9013010363787 801.7120433101198 115.45283067177665 832.0315535957044 103.00436030717461 865.2904504409619 102.06973792997438 898.5493472862194 101.13511555277415 929.7263977370299 110.48873077460331 960.9034481878404 119.84234599643247 950.9100052705277 142.6695308717646 940.916562353215 165.49671574709677 940.9117431640625 165.50547790527344 Z" fill="#fca311"></path></svg>